<svg xmlns="http://www.w3.org/2000/svg" viewBox="0 0 750 500"><g id="freepik--background-complete--inject-2"><path d="M461.9,411.82c.07-5.92-1.16-6.86-1.85-7.92a5.22,5.22,0,0,1-1.24-2.94c0-1.27-.44-6.85-.53-8.64s-.75-4.44-.55-5.36a1,1,0,0,1,0-.17,3.21,3.21,0,0,0-2.28-.48l-.47.11a2.12,2.12,0,0,1-1.18.09l-.53-.14a2.81,2.81,0,0,0-1.09-.16,1.94,1.94,0,0,0-.67.19c0,.15.06.34.11.57.2.92-.45,3.57-.53,5.36s-.45,7.37-.49,8.65a5.14,5.14,0,0,1-1.23,2.94c-.68,1.07-1.92,2-1.82,7.93s.21,19.08.21,19.08c0,.61,0,1.28,0,1.91a6.2,6.2,0,0,0,1.15,3.61,3,3,0,0,0,2.32.86c.89,0,2.18,0,3.5,0l3.49,0a3.21,3.21,0,0,0,2.19-.73c1.46-1.43,1.28-3.81,1.29-5.67C461.77,430.9,461.83,417.74,461.9,411.82Z" style="fill:#fff"></path><path d="M453.79,437.56H451.3a3.2,3.2,0,0,1-2.5-.95,6.38,6.38,0,0,1-1.2-3.75,17.81,17.81,0,0,1,0-1.93c0-.12-.11-13.22-.21-19.07-.08-5.3.89-6.68,1.6-7.69l.26-.37c.08-.14.17-.27.25-.4a4.15,4.15,0,0,0,.94-2.42c0-.69.14-2.66.26-4.57.1-1.64.19-3.26.23-4.08s.18-1.69.31-2.58a11.07,11.07,0,0,0,.23-2.71c-.05-.24-.09-.44-.11-.6l0-.17.16-.08a2.49,2.49,0,0,1,.74-.21,3.07,3.07,0,0,1,1.19.17l.51.14a2,2,0,0,0,1.06-.09c.17,0,.32-.09.5-.12a3.46,3.46,0,0,1,2.45.52l.13.09L458,387a11.09,11.09,0,0,0,.23,2.73c.14.89.28,1.81.32,2.59s.15,2.44.25,4.08c.13,1.9.26,3.87.28,4.57a4.22,4.22,0,0,0,.94,2.41l.26.4.26.37c.71,1,1.69,2.38,1.63,7.68-.07,5.92-.13,19-.13,19.08s0,.38,0,.58c0,1.74,0,3.9-1.37,5.26a3.26,3.26,0,0,1-2.35.8l-3.49,0Zm-2-51c0,.11.05.24.08.38a10.65,10.65,0,0,1-.23,2.89,25.38,25.38,0,0,0-.3,2.53c0,.83-.14,2.45-.24,4.09-.11,1.9-.23,3.87-.25,4.56a4.66,4.66,0,0,1-1,2.67l-.25.39c-.08.13-.17.25-.27.39-.67.95-1.59,2.25-1.51,7.4.1,5.86.21,19,.21,19.09,0,.61,0,1.27,0,1.89a5.84,5.84,0,0,0,1.09,3.47,2.74,2.74,0,0,0,2.15.78c.89,0,2.17,0,3.49,0l3.48,0a2.87,2.87,0,0,0,2-.66c1.24-1.22,1.23-3.18,1.22-4.92v-.58h0c0-1,.09-15.66.13-19.08h0c.06-5.15-.86-6.45-1.54-7.4-.1-.14-.19-.26-.27-.39s-.17-.27-.26-.39a4.7,4.7,0,0,1-1-2.67c0-.68-.15-2.65-.27-4.55-.11-1.64-.22-3.27-.26-4.09a22.88,22.88,0,0,0-.31-2.53,10.27,10.27,0,0,1-.23-2.89h0a2.88,2.88,0,0,0-2-.36,2.47,2.47,0,0,0-.43.1,2.48,2.48,0,0,1-1.31.09,4.75,4.75,0,0,1-.54-.14,2.44,2.44,0,0,0-1-.15A2.5,2.5,0,0,0,451.82,386.54Z" style="fill:#e0e0e0"></path><path d="M453.4,386.42l.52.12a1.82,1.82,0,0,0,.9-.07,3.88,3.88,0,0,1,.6-.13,4.68,4.68,0,0,1,2.75.42,1,1,0,0,0,0-.2,1.28,1.28,0,0,0-1.4-1.62h-4.18c-1.4,0-1.46,1-1.42,1.44a4.15,4.15,0,0,1,.71-.16A4.21,4.21,0,0,1,453.4,386.42Z" style="fill:#e0e0e0"></path><path d="M459,404.57l-.25-.39a5.66,5.66,0,0,1-1.19-3.17c0-.67-.15-2.61-.27-4.49v0c-.1-1.6-.21-3.26-.25-4.1,0-.28-.05-.59-.09-.92h-4.53c0,.33-.07.64-.08.92,0,.84-.14,2.5-.24,4.1v0c-.11,1.88-.23,3.82-.25,4.49a5.64,5.64,0,0,1-1.18,3.18l-.25.38c-.09.14-.18.28-.29.43-.59.84-1.41,2-1.33,6.82q.06,3.19.09,6.39c0,3.75.11,7.5.1,11.26,0,1.52-.07,3,.81,4.32s2.69,1.14,3.93,1.14a33.7,33.7,0,0,0,4.14-.14,3.48,3.48,0,0,0,1.94-.76c.92-.84.71-3.05.71-4.16,0-2.8,0-5.6,0-8.4,0-3.22,0-6.45.08-9.68.06-4.82-.76-6-1.36-6.81Z" style="fill:#ebebeb"></path><path d="M452,425.91H447.6v-13.3H452a6.65,6.65,0,0,1,6.65,6.65h0A6.65,6.65,0,0,1,452,425.91Z" style="fill:#e0e0e0"></path><path d="M275.05,467.81c.07-5.92-1.16-6.86-1.85-7.92A5.22,5.22,0,0,1,272,457c0-1.27-.44-6.85-.52-8.64s-.75-4.44-.56-5.36a1,1,0,0,0,0-.17,3.19,3.19,0,0,0-2.28-.48l-.47.11a2.11,2.11,0,0,1-1.18.09l-.52-.14a2.85,2.85,0,0,0-1.1-.16,1.83,1.83,0,0,0-.66.19c0,.15.06.34.11.58.2.91-.45,3.56-.54,5.35s-.45,7.37-.49,8.65a5.14,5.14,0,0,1-1.23,2.94c-.68,1.07-1.91,2-1.82,7.93s.21,19.08.21,19.08c0,.61,0,1.28,0,1.91a6.13,6.13,0,0,0,1.15,3.61,3,3,0,0,0,2.32.86c.89,0,2.17,0,3.49,0s2.6,0,3.49,0a3.19,3.19,0,0,0,2.19-.73c1.46-1.43,1.28-3.81,1.29-5.67C274.92,486.89,275,473.73,275.05,467.81Z" style="fill:#fff"></path><path d="M267,493.55h-2.5a3.19,3.19,0,0,1-2.5-.94,6.43,6.43,0,0,1-1.2-3.76c0-.64-.06-1.3,0-1.93,0-.12-.11-13.22-.21-19.07-.08-5.3.89-6.68,1.61-7.69l.25-.37c.09-.14.17-.27.26-.39a4.17,4.17,0,0,0,.93-2.43c0-.69.14-2.66.26-4.57.1-1.64.2-3.26.23-4.08s.18-1.69.31-2.58a10.59,10.59,0,0,0,.23-2.71c-.05-.24-.09-.44-.11-.6l0-.17.16-.08a2.49,2.49,0,0,1,.74-.21,3.07,3.07,0,0,1,1.19.17l.51.14a2,2,0,0,0,1.07-.09c.16,0,.31-.09.49-.12a3.46,3.46,0,0,1,2.45.52l.13.09-.06.31a10.72,10.72,0,0,0,.24,2.73c.13.89.28,1.81.31,2.59s.15,2.44.26,4.08c.12,1.9.25,3.87.27,4.57a4.13,4.13,0,0,0,.95,2.41l.26.4c.07.12.16.24.25.37.72,1,1.7,2.38,1.63,7.68-.07,5.92-.13,19-.13,19.08v.58c0,1.74,0,3.91-1.36,5.26a3.3,3.3,0,0,1-2.36.8l-3.49,0Zm-2-51c0,.12,0,.24.08.38a11,11,0,0,1-.22,2.89c-.14.88-.27,1.78-.31,2.53s-.13,2.45-.23,4.09c-.12,1.9-.24,3.87-.26,4.56a4.72,4.72,0,0,1-1,2.67l-.26.39c-.08.13-.17.25-.26.39-.68.95-1.6,2.25-1.52,7.4.1,5.86.21,19,.21,19.09a17.09,17.09,0,0,0,0,1.89,5.77,5.77,0,0,0,1.09,3.47,2.71,2.71,0,0,0,2.14.78c.89,0,2.18,0,3.49,0s2.6,0,3.48,0a2.87,2.87,0,0,0,2-.66c1.24-1.21,1.23-3.18,1.22-4.92v-.58h0c0-1.05.09-15.66.13-19.08h0c.07-5.15-.86-6.45-1.54-7.4-.09-.14-.18-.26-.27-.39l-.25-.39a4.71,4.71,0,0,1-1-2.67c0-.68-.15-2.65-.27-4.55-.11-1.64-.21-3.27-.25-4.09s-.18-1.66-.32-2.53a10.67,10.67,0,0,1-.23-2.89h0a2.88,2.88,0,0,0-2-.36,2.47,2.47,0,0,0-.43.1,2.37,2.37,0,0,1-1.31.09,4.56,4.56,0,0,1-.53-.13,2,2,0,0,0-1.44-.07Z" style="fill:#e0e0e0"></path><path d="M266.55,442.41l.52.12a1.81,1.81,0,0,0,.9-.07,5.29,5.29,0,0,1,.61-.13,4.65,4.65,0,0,1,2.74.42c0-.14,0-.2,0-.2a1.28,1.28,0,0,0-1.4-1.62h-4.19c-1.4,0-1.45,1-1.42,1.44a3.71,3.71,0,0,1,.71-.15A4,4,0,0,1,266.55,442.41Z" style="fill:#e0e0e0"></path><path d="M272.11,460.56c-.08-.14-.17-.26-.25-.39a5.58,5.58,0,0,1-1.18-3.17c0-.67-.15-2.61-.27-4.49v0c-.1-1.6-.21-3.26-.25-4.1,0-.28,0-.59-.08-.92h-4.54c0,.33-.06.64-.08.92,0,.84-.14,2.5-.23,4.1v0c-.11,1.88-.23,3.82-.25,4.49a5.54,5.54,0,0,1-1.18,3.18l-.24.38-.29.43c-.6.84-1.41,2-1.34,6.82q.06,3.19.09,6.39c0,3.75.11,7.5.1,11.26,0,1.52-.06,3,.81,4.32s2.7,1.14,3.94,1.15a35.55,35.55,0,0,0,4.13-.15,3.51,3.51,0,0,0,1.95-.76c.91-.84.7-3,.71-4.16,0-2.8,0-5.6,0-8.4,0-3.22,0-6.45.08-9.68.06-4.82-.76-6-1.35-6.81Q272.25,460.77,272.11,460.56Z" style="fill:#ebebeb"></path><path d="M265.19,481.9h-4.43V468.61h4.43a6.64,6.64,0,0,1,6.65,6.64h0A6.65,6.65,0,0,1,265.19,481.9Z" style="fill:#e0e0e0"></path><polygon points="376.82 269.76 364.13 262.62 359.92 241.2 356.37 242.15 359.45 262.39 347.28 254.33 344.62 257.32 360.72 267.36 376.82 274.75 376.82 269.76" style="fill:#ebebeb"></polygon><rect x="375.06" y="238.51" width="9.3" height="198.57" style="fill:#ebebeb"></rect><path d="M377.17,12.73c0,1.24-25,78.36-25,78.36l12.48-12.44-18,53.9,11.84-16.17-14,67.58,6.77-7.05-11.85,47.68,10.16-12.44-10.16,35.66,80.4-5.81-19-67.16,11.5,12.44-14.89-48.93,7.62,4.15-17.35-63,8,5.39Z" style="fill:#e0e0e0"></path><path d="M379.87,150.37a7.66,7.66,0,0,1-.4,1.15l-1.26,3.13-4.5,10.79-.2.48-.25-.46a55.07,55.07,0,0,1-3.28-7.14c-.36-1-.68-1.92-1-2.83l.5,0c-2.22,5.54-4.39,10.36-6,13.79-.82,1.71-1.5,3.08-2,4-.23.42-.41.78-.57,1.07a1.33,1.33,0,0,1-.23.36,11,11,0,0,1,.63-1.51l1.83-4.07c1.55-3.46,3.66-8.3,5.86-13.84l.27-.68.22.7c.29.9.61,1.85,1,2.8a56.3,56.3,0,0,0,3.22,7.09l-.45,0,4.68-10.72,1.39-3.08A6.35,6.35,0,0,1,379.87,150.37Z" style="fill:#ebebeb"></path><path d="M388.43,121.59a4.83,4.83,0,0,1-.45-.83c-.31-.63-.69-1.42-1.16-2.36-1-2-2.45-4.8-4.35-7.92l.46-.07c-.4,1.52-.83,3.16-1.28,4.85-.28,1.06-.56,2.09-.83,3.08l-.18.69-.3-.65c-1.72-3.74-3.2-7-4.24-9.39l-1.21-2.79a4.82,4.82,0,0,1-.37-1,6,6,0,0,1,.54,1c.36.73.81,1.64,1.34,2.73,1.13,2.33,2.67,5.6,4.41,9.32l-.49,0c.27-1,.54-2,.82-3.08l1.31-4.84.15-.58.31.52a81.37,81.37,0,0,1,4.2,8c.46,1,.8,1.85,1,2.42A3.47,3.47,0,0,1,388.43,121.59Z" style="fill:#ebebeb"></path><path d="M377,62.51a19.78,19.78,0,0,1-1.41,2.74c-.94,1.68-2.28,4-3.82,6.66l-.36.6-.12-.68c-.14-.77-.29-1.56-.44-2.38-.25-1.4-.49-2.75-.71-4l.46.09c-1.44,2.22-2.69,4.13-3.59,5.47a15.31,15.31,0,0,1-1.51,2.09,15.2,15.2,0,0,1,1.25-2.25c.82-1.39,2-3.33,3.42-5.57l.34-.54.12.63.74,4c.15.82.29,1.61.43,2.38l-.48-.08c1.56-2.64,3-4.94,4-6.58A22.23,22.23,0,0,1,377,62.51Z" style="fill:#ebebeb"></path><polygon points="72.62 315.78 58.63 307.75 53.98 283.65 50.08 284.72 53.47 307.49 40.05 298.42 37.12 301.79 54.87 313.08 72.62 321.4 72.62 315.78" style="fill:#ebebeb"></polygon><rect x="70.68" y="280.62" width="10.25" height="156.76" style="fill:#ebebeb"></rect><path d="M73,26.61c0,1.4-27.52,88.15-27.52,88.15l13.76-14L39.42,161.41l13.06-18.19-15.39,76,7.46-7.93L31.49,265l11.2-14-11.2,40.11,88.63-6.53L99.13,209l12.67,14-16.41-55,8.4,4.66L84.67,101.7l8.86,6.07Z" style="fill:#e0e0e0"></path><path d="M76,181.46a7.55,7.55,0,0,1-.44,1.29c-.36.9-.82,2.07-1.39,3.52-1.25,3.08-3,7.27-5,12.14L69,199l-.27-.51a61.25,61.25,0,0,1-3.62-8c-.39-1.08-.75-2.16-1.07-3.18l.54,0c-2.44,6.23-4.84,11.66-6.64,15.51-.9,1.93-1.65,3.47-2.18,4.52l-.63,1.2c-.15.27-.23.41-.25.4a13.74,13.74,0,0,1,.69-1.69l2-4.58c1.71-3.9,4-9.34,6.46-15.57l.3-.77.24.79c.31,1,.67,2.08,1.06,3.15a64.36,64.36,0,0,0,3.56,8l-.49,0c2.06-4.84,3.84-9,5.15-12.06l1.53-3.46A8.21,8.21,0,0,1,76,181.46Z" style="fill:#ebebeb"></path><path d="M85.42,149.08a5.07,5.07,0,0,1-.5-.94c-.34-.71-.77-1.59-1.27-2.65-1.1-2.25-2.71-5.4-4.8-8.91l.51-.07c-.45,1.7-.92,3.54-1.42,5.45-.31,1.19-.62,2.35-.91,3.47l-.21.77-.33-.73c-1.88-4.2-3.52-7.91-4.67-10.57-.53-1.26-1-2.31-1.33-3.14a5,5,0,0,1-.41-1.16,5.47,5.47,0,0,1,.6,1.08l1.48,3.07C73.4,137.37,75.1,141,77,145.24l-.53,0,.9-3.47c.51-1.9,1-3.74,1.44-5.44l.17-.65.34.57A90.8,90.8,0,0,1,84,145.35c.51,1.15.89,2.08,1.13,2.72A4.76,4.76,0,0,1,85.42,149.08Z" style="fill:#ebebeb"></path><path d="M72.87,82.61a23.88,23.88,0,0,1-1.57,3.08c-1,1.89-2.51,4.52-4.21,7.5l-.39.67-.14-.77q-.23-1.29-.48-2.67c-.27-1.57-.54-3.09-.78-4.5l.5.1c-1.58,2.5-3,4.65-3.95,6.15a17.23,17.23,0,0,1-1.67,2.35A18.16,18.16,0,0,1,61.56,92c.91-1.56,2.22-3.74,3.77-6.26l.38-.61.13.7c.25,1.41.53,2.93.81,4.5.16.92.32,1.81.47,2.67l-.52-.09c1.72-3,3.26-5.55,4.38-7.39A22.22,22.22,0,0,1,72.87,82.61Z" style="fill:#ebebeb"></path><polygon points="694.28 316.76 708.27 308.73 712.91 284.63 716.82 285.7 713.43 308.47 726.84 299.4 729.78 302.77 712.03 314.06 694.28 322.38 694.28 316.76" style="fill:#ebebeb"></polygon><rect x="685.97" y="281.6" width="10.25" height="156.76" transform="translate(1382.19 719.96) rotate(180)" style="fill:#ebebeb"></rect><path d="M693.89,27.59c0,1.4,27.52,88.16,27.52,88.16l-13.76-14,19.83,60.64L714.42,144.2l15.39,76-7.46-7.93,13.06,53.64-11.2-14,11.2,40.11-88.63-6.53,21-75.56L655.1,224l16.4-55-8.39,4.67,19.12-70.9-8.86,6.06Z" style="fill:#e0e0e0"></path><path d="M690.92,182.44a7.55,7.55,0,0,0,.44,1.29c.35.9.82,2.08,1.39,3.52,1.25,3.08,3,7.27,5,12.15l.21.53.28-.51a61.25,61.25,0,0,0,3.62-8c.39-1.08.75-2.16,1.07-3.18l-.55,0c2.45,6.23,4.84,11.66,6.65,15.52.9,1.92,1.65,3.46,2.18,4.51.25.48.45.87.63,1.2s.23.41.25.4a14.56,14.56,0,0,0-.69-1.69l-2-4.58c-1.71-3.89-4-9.34-6.46-15.57l-.3-.77-.24.79c-.32,1-.67,2.08-1.07,3.15a62.92,62.92,0,0,1-3.55,8l.49,0c-2.07-4.84-3.85-9-5.15-12.07l-1.53-3.46A8.21,8.21,0,0,0,690.92,182.44Z" style="fill:#ebebeb"></path><path d="M681.48,150.06a5.07,5.07,0,0,0,.5-.94l1.27-2.65c1.1-2.25,2.71-5.4,4.8-8.91l-.51-.07c.44,1.7.92,3.54,1.42,5.45.31,1.19.61,2.35.91,3.47l.2.78.33-.74c1.89-4.2,3.53-7.91,4.68-10.57l1.32-3.14a6.3,6.3,0,0,0,.42-1.16,5.47,5.47,0,0,0-.6,1.08l-1.48,3.07c-1.24,2.62-2.94,6.29-4.85,10.49l.53,0-.9-3.47c-.51-1.9-1-3.74-1.44-5.44l-.17-.65-.34.58a89.74,89.74,0,0,0-4.63,9.05c-.51,1.15-.89,2.08-1.13,2.72A4.11,4.11,0,0,0,681.48,150.06Z" style="fill:#ebebeb"></path><path d="M694,83.59a22.34,22.34,0,0,0,1.57,3.08c1,1.9,2.5,4.52,4.21,7.5l.39.68.13-.77q.24-1.31.48-2.67c.28-1.58.55-3.1.79-4.51l-.5.1c1.58,2.5,3,4.65,3.95,6.16a18.38,18.38,0,0,0,1.66,2.34A16.13,16.13,0,0,0,705.34,93c-.91-1.55-2.23-3.74-3.78-6.26l-.37-.61-.13.71c-.25,1.4-.53,2.92-.82,4.49-.16.92-.31,1.81-.47,2.68l.53-.1c-1.72-3-3.26-5.55-4.38-7.39A23.58,23.58,0,0,0,694,83.59Z" style="fill:#ebebeb"></path><path d="M144.35,137.37s15.54,30,19.38,28.67c5-1.74,13.87-33.46,13.87-33.46S147.32,137,144.35,137.37Z" style="fill:#f5f5f5"></path><path d="M180.89,132.1s18.16,28.51,21.87,26.83c4.79-2.17,10.83-34.56,10.83-34.56S183.83,131.51,180.89,132.1Z" style="fill:#ebebeb"></path><path d="M216.72,123.43s20.65,26.75,24.2,24.74c4.57-2.59,7.67-35.39,7.67-35.39S219.59,122.57,216.72,123.43Z" style="fill:#f5f5f5"></path><path d="M250.07,112.38s22.18,25.5,25.6,23.29c4.41-2.86,5.59-35.78,5.59-35.78S252.89,111.36,250.07,112.38Z" style="fill:#ebebeb"></path><path d="M283,98.43s24.7,23.07,27.87,20.51c4.09-3.29,1.86-36.16,1.86-36.16S285.66,97.13,283,98.43Z" style="fill:#f5f5f5"></path><path d="M314.37,81.71s26.37,21.13,29.34,18.34c3.83-3.59-.88-36.2-.88-36.2S317,80.2,314.37,81.71Z" style="fill:#ebebeb"></path><path d="M107.91,139.5S121,170.65,125,169.61c5.08-1.34,16.46-32.26,16.46-32.26S110.9,139.41,107.91,139.5Z" style="fill:#ebebeb"></path><path d="M369.86,44.32l-.66.54-1.95,1.57L364.07,49l-2,1.62-2.36,1.79-5.54,4.19-6.72,4.82c-1.2.88-2.47,1.73-3.78,2.62l-4.06,2.76c-.7.47-1.39,1-2.12,1.43l-2.21,1.43-4.59,3a431,431,0,0,1-46,25.25c-8.95,4.18-18.46,8.31-28.47,12.22s-20.55,7.51-31.45,10.82l-8.16,2.4-8.1,2.18-2,.54-2,.48-4,1-4,1-4,.86c-2.63.55-5.22,1.17-7.82,1.66l-7.69,1.47c-2.54.47-5.07.85-7.57,1.28l-3.72.62-3.69.52c-9.77,1.47-19.12,2.33-27.87,3.06s-16.94,1-24.41,1l-5.47.05c-1.77,0-3.5-.05-5.19-.07-3.36-.07-6.53-.09-9.5-.26s-5.72-.24-8.25-.42l-6.93-.52c-1-.08-2-.14-3-.23l-2.58-.27-4-.43-2.48-.27c-.56-.06-.85-.11-.85-.11l.85.07,2.49.24,4,.39,2.58.26c.92.09,1.91.14,3,.22l6.93.49c2.53.16,5.29.24,8.25.38s6.14.18,9.5.24c1.68,0,3.41.09,5.18.06l5.47-.06c7.46-.06,15.63-.47,24.39-1.07s18.09-1.61,27.85-3.1l3.68-.52,3.72-.62c2.49-.42,5-.8,7.56-1.28l7.69-1.48c2.59-.49,5.18-1.1,7.81-1.66l4-.86,4-1,4-1,2-.49,2-.54,8.09-2.17,8.15-2.4c10.89-3.32,21.4-7,31.43-10.81s19.51-8,28.46-12.19a435.35,435.35,0,0,0,46-25.18l4.6-2.94L337.35,68l2.12-1.43,4.06-2.74c1.31-.89,2.59-1.74,3.79-2.62l6.73-4.79,5.56-4.17L362,50.5l2-1.61,3.2-2.51,2-1.54C369.62,44.49,369.86,44.32,369.86,44.32Z" style="fill:#455a64"></path><path d="M92.33,139.4c-.92,0-1.82-.07-2.71-.12l-3-.14c-1.84-.08-3.58-.16-5.23-.27l-8-.61c-.65,0-1.27-.09-1.87-.15l-9.11-1-.87-.1.13-1.29.87.07,9.12.88c.59.06,1.2.1,1.84.14l8,.57c1.61.11,3.32.18,5.11.25l3.13.14c2.3.13,4.72.16,7.29.2l2.19,0,1.81,0c1.1,0,2.22,0,3.35,0l5.47-.06c6.76-.05,14.5-.39,24.35-1.06,8.23-.71,17.85-1.58,27.8-3.1l7.39-1.14,2.65-.44c1.63-.26,3.26-.53,4.9-.84l7.69-1.47c1.66-.32,3.33-.69,5-1.06l2.79-.6,7.9-1.82,8-2,8.09-2.17,8.13-2.39c10.43-3.18,21-6.81,31.39-10.79,9.27-3.62,18.83-7.72,28.41-12.18a438.36,438.36,0,0,0,45.9-25.13l10.13-6.61L343.7,63c1.12-.75,2.21-1.49,3.24-2.24l6.73-4.8,9.94-7.53,5.17-4.05c.45-.36.69-.53.69-.53l.81,1-.67.56-9.53,7.52-5.54,4.2-6.74,4.83c-1,.76-2.14,1.51-3.27,2.28l-5.31,3.61c-.46.31-.92.63-1.39.93L331,73.13a435.37,435.37,0,0,1-46,25.3c-9.62,4.48-19.21,8.6-28.52,12.23-10.42,4-21,7.66-31.5,10.84l-8.15,2.41-20.12,5.14-4,.86-2.81.61c-1.68.37-3.35.74-5,1L177.19,133c-1.66.32-3.31.58-4.95.85l-2.63.44-7.43,1.14c-10,1.51-19.66,2.38-27.91,3.07-9.88.66-17.65,1-24.46,1l-5.46.05c-1.16,0-2.3,0-3.43,0l-1.77,0-2.16,0C95.38,139.48,93.83,139.45,92.33,139.4Z" style="fill:#e0e0e0"></path><path d="M619.63,128.54s-13.82,30.85-17.73,29.72c-5-1.45-15.74-32.62-15.74-32.62S616.64,128.38,619.63,128.54Z" style="fill:#f5f5f5"></path><path d="M582.84,125.35s-16.51,29.49-20.31,28c-4.9-1.89-12.77-33.89-12.77-33.89S579.88,124.93,582.84,125.35Z" style="fill:#ebebeb"></path><path d="M546.58,118.72s-19.1,27.88-22.75,26.07c-4.71-2.32-9.67-34.9-9.67-34.9S543.66,118,546.58,118.72Z" style="fill:#f5f5f5"></path><path d="M512.66,109.58s-20.7,26.72-24.24,24.7c-4.57-2.6-7.61-35.41-7.61-35.41S509.79,108.72,512.66,109.58Z" style="fill:#ebebeb"></path><path d="M479,97.51s-23.35,24.43-26.66,22.06c-4.27-3.06-3.9-36-3.9-36S476.26,96.36,479,97.51Z" style="fill:#f5f5f5"></path><path d="M446.73,82.59s-25.14,22.6-28.26,20c-4-3.37-1.17-36.19-1.17-36.19S444.06,81.24,446.73,82.59Z" style="fill:#ebebeb"></path><path d="M656.13,128.61s-11.35,31.84-15.34,31c-5.15-1-18.26-31.27-18.26-31.27S653.13,128.69,656.13,128.61Z" style="fill:#ebebeb"></path><path d="M389.21,48.41l.69.5,2,1.46,3.32,2.36,2.12,1.5,2.45,1.65,5.77,3.87,7,4.43c1.25.81,2.57,1.59,3.93,2.41l4.2,2.52c.72.43,1.45.88,2.2,1.31l2.29,1.3,4.75,2.69A429.19,429.19,0,0,0,477.26,97c9.17,3.66,18.9,7.25,29.12,10.59s20.94,6.33,32,9l8.27,1.93,8.21,1.71,2,.43,2,.37,4,.74,4,.74,4,.63c2.65.41,5.28.88,7.89,1.22l7.77,1c2.56.33,5.11.57,7.63.85l3.75.41,3.71.31c9.84.92,19.22,1.24,28,1.48,8.78.09,17,0,24.43-.35l5.46-.27c1.78-.07,3.5-.24,5.18-.36,3.35-.26,6.52-.46,9.47-.8s5.7-.56,8.22-.88l6.89-.91c1-.15,2-.26,2.93-.41l2.56-.41,4-.66,2.47-.41.84-.15-.85.12-2.47.38-4,.62-2.56.4c-.92.14-1.9.25-2.93.38l-6.89.89c-2.52.3-5.27.54-8.22.85s-6.12.53-9.47.78c-1.68.11-3.4.27-5.17.34l-5.46.26c-7.46.36-15.64.41-24.41.31-8.78-.25-18.16-.59-28-1.52l-3.71-.31-3.75-.41c-2.51-.28-5.06-.52-7.62-.85l-7.76-1c-2.61-.34-5.24-.81-7.89-1.22l-4-.63-4-.74-4-.74-2-.38-2-.42-8.2-1.71-8.27-1.93c-11.07-2.7-21.77-5.74-32-9s-19.93-6.91-29.1-10.56A431.78,431.78,0,0,1,430.06,74.2l-4.76-2.68L423,70.23l-2.2-1.31-4.21-2.51c-1.36-.81-2.68-1.59-3.93-2.39l-7-4.41-5.79-3.84-2.46-1.64-2.12-1.49L392,50.31l-2.05-1.43C389.46,48.56,389.21,48.41,389.21,48.41Z" style="fill:#455a64"></path><path d="M671.68,127.63c.91-.08,1.82-.17,2.7-.28l3-.31c1.82-.19,3.56-.36,5.2-.57l8-1.06c.65-.08,1.27-.16,1.86-.26l9-1.48.86-.15-.2-1.28s-.29,0-.86.12l-9.06,1.4c-.58.09-1.19.16-1.82.24l-8,1c-1.6.2-3.3.37-5.08.54l-3.12.31c-2.29.26-4.7.44-7.26.62l-2.19.16-1.81.13c-1.09.09-2.2.17-3.34.22l-5.46.25c-6.75.33-14.5.42-24.38.31-8.25-.23-17.91-.56-27.92-1.51l-7.45-.72-2.67-.29c-1.64-.17-3.28-.35-4.94-.57l-7.75-1c-1.69-.22-3.37-.49-5.06-.77l-2.82-.45-8-1.37-8.1-1.53-8.2-1.72-8.26-1.93c-10.59-2.57-21.34-5.6-31.94-9-9.46-3.09-19.24-6.64-29.06-10.55a438.74,438.74,0,0,1-47.25-22.49l-10.49-6-3.5-2.08c-1.16-.69-2.28-1.36-3.35-2.05l-7-4.41-10.35-7-5.39-3.76-.72-.49-.75,1.06.7.52,9.94,7,5.77,3.88,7,4.44c1.08.7,2.22,1.39,3.4,2.09l5.5,3.3,1.44.86,7.05,4A435.87,435.87,0,0,0,477,97.62c9.85,3.94,19.67,7.51,29.16,10.61,10.63,3.4,21.42,6.45,32.06,9l8.28,1.93,20.38,4,4,.63,2.84.45c1.7.28,3.39.55,5.08.77l7.76,1c1.68.22,3.34.4,5,.57l2.65.29,7.49.71c10.08.95,19.76,1.27,28,1.49,9.91.1,17.68,0,24.48-.36l5.46-.26c1.16-.05,2.3-.14,3.42-.23l1.77-.13L667,128C668.63,127.88,670.18,127.76,671.68,127.63Z" style="fill:#e0e0e0"></path></g><g id="freepik--Floor--inject-2"><path d="M732,437.38c0,.14-154.59.26-345.23.26s-345.26-.12-345.26-.26,154.55-.26,345.26-.26S732,437.23,732,437.38Z" style="fill:#263238"></path><path d="M671.73,436.31c-.09,0-.18-1.08-.58-2.76a22.29,22.29,0,0,0-2.52-6.23,22.53,22.53,0,0,0-4.27-5.19c-1.29-1.16-2.2-1.75-2.15-1.82s.26.09.69.34a13.71,13.71,0,0,1,1.7,1.2,19.75,19.75,0,0,1,6.91,11.62,12.34,12.34,0,0,1,.24,2.07A2.5,2.5,0,0,1,671.73,436.31Z" style="fill:#263238"></path><path d="M678.31,404.72A5.78,5.78,0,0,1,678,406c-.25.81-.58,2-1,3.44a71.18,71.18,0,0,0-2,11.59,72.43,72.43,0,0,0,0,11.75c.13,1.5.25,2.71.36,3.55a7.46,7.46,0,0,1,.11,1.31,5.5,5.5,0,0,1-.31-1.28c-.17-.83-.35-2-.53-3.55a61.19,61.19,0,0,1,2-23.47c.42-1.45.8-2.62,1.11-3.41A7.15,7.15,0,0,1,678.31,404.72Z" style="fill:#263238"></path><path d="M686.41,422.82a24.29,24.29,0,0,0-5.84,14.69,7.35,7.35,0,0,1-.09-2.39,18.91,18.91,0,0,1,4.22-10.62A7.45,7.45,0,0,1,686.41,422.82Z" style="fill:#263238"></path><path d="M54.82,438.07a28.06,28.06,0,0,1-1.15-2.72,41.76,41.76,0,0,0-3.35-6.25,41.4,41.4,0,0,0-4.41-5.56,28.45,28.45,0,0,1-2-2.15,12.14,12.14,0,0,1,2.29,1.89,32,32,0,0,1,4.59,5.53,32.41,32.41,0,0,1,3.25,6.4A11.88,11.88,0,0,1,54.82,438.07Z" style="fill:#263238"></path><path d="M55.44,391.7a1.7,1.7,0,0,1,0,.47l-.06,1.33c-.07,1.16-.14,2.83-.18,4.9a124,124,0,0,0,3.41,32c.48,2,.9,3.64,1.21,4.75.13.51.25.94.34,1.29a1.47,1.47,0,0,1,.08.46s-.08-.14-.18-.43-.26-.76-.43-1.26c-.37-1.1-.85-2.71-1.38-4.72a110.49,110.49,0,0,1-2.91-15.94,108.31,108.31,0,0,1-.51-16.2c.09-2.07.22-3.75.35-4.9l.15-1.33A1.5,1.5,0,0,1,55.44,391.7Z" style="fill:#263238"></path><path d="M307.81,475.14c-.08,0-.47-1.31-1.21-3.42a68.36,68.36,0,0,0-3.38-8.05,69.89,69.89,0,0,0-4.38-7.55c-1.25-1.87-2.08-3-2-3a4.1,4.1,0,0,1,.67.71c.41.48,1,1.2,1.64,2.11a53.43,53.43,0,0,1,4.55,7.52A54.51,54.51,0,0,1,307,471.6c.33,1.08.56,2,.7,2.58A4.14,4.14,0,0,1,307.81,475.14Z" style="fill:#263238"></path><path d="M314,474.11a3.73,3.73,0,0,1-.48-1c-.29-.63-.66-1.56-1.08-2.72a70.43,70.43,0,0,1-4-18.82c-.08-1.23-.12-2.23-.12-2.92a4.74,4.74,0,0,1,.05-1.07c.09,0,.18,1.51.44,4a90.81,90.81,0,0,0,4,18.73C313.53,472.65,314.06,474.08,314,474.11Z" style="fill:#263238"></path><path d="M319.65,476.13a3.11,3.11,0,0,1-.31-.82c-.17-.54-.38-1.33-.59-2.31a38.15,38.15,0,0,1-.83-7.81,39.81,39.81,0,0,1,.75-7.83c.21-1,.4-1.77.57-2.31s.27-.83.31-.82-.2,1.23-.51,3.2a48.52,48.52,0,0,0-.6,7.75,49.75,49.75,0,0,0,.67,7.75C319.44,474.9,319.73,476.11,319.65,476.13Z" style="fill:#263238"></path></g><g id="freepik--character-3--inject-2"><path d="M500.65,419.65l-15.29,34.53-43.06-18.8c2.05-4,27.93-2.53,27.93-2.53l8.88-22.53Z" style="fill:#5046E5"></path><g style="opacity:0.6000000000000001"><path d="M484.36,436.79a1.93,1.93,0,0,1,.34,2.54,1.84,1.84,0,0,1-2.51.36,2,2,0,0,1-.35-2.69,1.91,1.91,0,0,1,2.66-.08" style="fill:#fff"></path></g><g style="opacity:0.6000000000000001"><path d="M485.36,454.18l1.41-3.54L445,433.94s-2.28,0-2.65,1.44Z" style="fill:#fff"></path></g><path d="M469.63,432.32c-.09.21.92.77,1.66,1.9s.91,2.25,1.14,2.25.44-1.35-.48-2.7S469.67,432.11,469.63,432.32Z" style="fill:#263238"></path><path d="M464.29,432.22c-.13.18.62.94.95,2.14s.12,2.23.33,2.31.87-1.05.44-2.53S464.39,432,464.29,432.22Z" style="fill:#263238"></path><path d="M459.37,436.5c.17.13.92-.79.88-2.18s-.82-2.27-1-2.14.17,1,.19,2.16S459.17,436.39,459.37,436.5Z" style="fill:#263238"></path><path d="M472.22,427.41c0,.23,1.1.36,2.25,1s1.92,1.38,2.1,1.25-.37-1.27-1.74-2S472.19,427.2,472.22,427.41Z" style="fill:#263238"></path><path d="M475.48,422.75c0,.09.73.58,2.16.93a10.56,10.56,0,0,0,2.56.29,11.57,11.57,0,0,0,1.52-.11,3,3,0,0,0,.87-.23,1,1,0,0,0,.59-1.07,1.28,1.28,0,0,0-.71-.89,3.21,3.21,0,0,0-.86-.24,8.5,8.5,0,0,0-4.1.31c-1.4.49-2.09,1.13-2,1.2s.84-.33,2.19-.65a9.48,9.48,0,0,1,2.39-.25,10,10,0,0,1,1.41.16c.51.08.9.25.92.5s0,.13-.15.22a2.29,2.29,0,0,1-.64.16c-.49.08-1,.13-1.42.16a14.14,14.14,0,0,1-2.44-.11A15,15,0,0,0,475.48,422.75Z" style="fill:#263238"></path><path d="M475.62,423.17c.06.07.81-.51,1.48-1.83a7.71,7.71,0,0,0,.73-2.49,8,8,0,0,0,0-1.55,2,2,0,0,0-.9-1.69,1.1,1.1,0,0,0-1.17.21,2.83,2.83,0,0,0-.56.69,5.27,5.27,0,0,0-.64,1.45,5.48,5.48,0,0,0,0,2.63c.35,1.49,1.12,2.12,1.17,2.06a21,21,0,0,1-.62-2.16,5.47,5.47,0,0,1,.21-2.32,4.75,4.75,0,0,1,.58-1.23c.27-.43.6-.72.75-.6s.43.59.45,1a8.36,8.36,0,0,1,0,1.41,8.63,8.63,0,0,1-.52,2.33C476.09,422.4,475.52,423.09,475.62,423.17Z" style="fill:#263238"></path><path d="M511.44,332.2c2-.95,11.14-2.5,20.49,3.67,28,18.45,73.22,60.78,73.22,60.78l.75,9.57L559,409l-33-31.62-27.06,57c.59-.69-30.56-12.49-30.56-12.49S500.14,337.5,511.44,332.2Z" style="fill:#263238"></path><path d="M548,409.64c1.91-.6,5.31-1.11,11.62-1.95,14.76-1.95,38-5.52,38-5.52l44.94-3.08,3.58,17.52c1.22,15.51-7.91,21.53-14.83,23.29-17.21,4.36-55.48,6.36-69.18,7.51-20,1.66-32-5.82-33.47-14.58C525.89,416.2,538.58,412.62,548,409.64Z" style="fill:#263238"></path><path d="M536.34,414.56a3.56,3.56,0,0,0,.54-.3c.35-.2.84-.53,1.52-.88a35,35,0,0,1,5.94-2.54,44.3,44.3,0,0,1,9.37-2c3.6-.53,7.52-1.16,11.65-1.83,8.26-1.36,15.74-2.49,21.19-3.07,2.72-.31,4.93-.51,6.45-.64l1.76-.15a3,3,0,0,0,.61-.08,4,4,0,0,0-.61,0l-1.77.07c-1.53.09-3.74.24-6.47.52-5.46.52-13,1.6-21.22,3l-11.63,1.86a43.63,43.63,0,0,0-9.41,2.08,32.59,32.59,0,0,0-5.93,2.67,15.71,15.71,0,0,0-1.49.95A2.81,2.81,0,0,0,536.34,414.56Z" style="fill:#455a64"></path><path d="M521.84,352a5.18,5.18,0,0,0,.31,1c.24.62.56,1.52.93,2.65a60.47,60.47,0,0,1,2.19,9,61.42,61.42,0,0,1,.76,9.21c0,1.19,0,2.15,0,2.81a4.92,4.92,0,0,0,0,1,5.67,5.67,0,0,0,.14-1c.07-.66.13-1.62.16-2.81a52,52,0,0,0-.66-9.29,51.26,51.26,0,0,0-2.31-9c-.4-1.12-.76-2-1-2.62A6.07,6.07,0,0,0,521.84,352Z" style="fill:#455a64"></path><path d="M570.18,405.39a7.36,7.36,0,0,0,1.46-1.81,7.06,7.06,0,0,0,1.15-2,7.36,7.36,0,0,0-1.46,1.81A7.22,7.22,0,0,0,570.18,405.39Z" style="fill:#455a64"></path><path d="M580.07,281.23s-7.23-2.83-18.35,3.69c-12,7-59.06,38.46-59.06,38.46a130.68,130.68,0,0,0-8.44,36.76c-.61,9.4-.13,12.51-.13,12.51l14-.61s11.8-38,16.52-40.88l45-18.22Z" style="fill:#ffbe9d"></path><path d="M522.63,396.71s1.44,3.79.51,4.5-1.56,1.73-3.18,0-3.32-3.64-3.32-3.64a3.66,3.66,0,0,1-2.22,1.79c-1.38.22-.09.44.2.58s3.87,1.93,4.07,4-1.09,1.57-1.09,1.57l-8.63-2.9s2,2.87-.38,4.64l-8.6-7.84-5-16.06-1.09-12.89,15.06.94c-.8-.05,6.81,8,7.73,9.34s2.77,7.75,2.77,7.75" style="fill:#ffbe9d"></path><path d="M519.48,389.32a45.64,45.64,0,0,0,3.15,7.71,23,23,0,0,0-1.4-3.93A23.57,23.57,0,0,0,519.48,389.32Z" style="fill:#eb996e"></path><path d="M513.43,392.64a10.72,10.72,0,0,0,1.53,2.73,10.84,10.84,0,0,0,2,2.43,16.71,16.71,0,0,0-1.65-2.64A16.5,16.5,0,0,0,513.43,392.64Z" style="fill:#eb996e"></path><path d="M508.18,393.34a3.78,3.78,0,0,0,.38,1.26,8.19,8.19,0,0,0,1.65,2.72,8.55,8.55,0,0,0,2.66,1.76,3.91,3.91,0,0,0,1.23.44,4.89,4.89,0,0,0-1.11-.68,10.9,10.9,0,0,1-2.51-1.78,10.06,10.06,0,0,1-1.68-2.57A5.2,5.2,0,0,0,508.18,393.34Z" style="fill:#eb996e"></path><path d="M502.42,395.43a3.91,3.91,0,0,0,.3,1.49,9.12,9.12,0,0,0,1.9,3.15,9,9,0,0,0,3,2.13,3.82,3.82,0,0,0,1.47.41c0-.06-.54-.23-1.35-.65a10.71,10.71,0,0,1-2.84-2.15,10.36,10.36,0,0,1-1.93-3C502.61,396,502.48,395.41,502.42,395.43Z" style="fill:#eb996e"></path><path d="M574.16,370.37l-7.27-53.74L578,280.18s24,1.19,34.1,3.32c3.65.78,24.16,11,28.3,23.68s4.14,31.91,3.9,45.5c-.24,13.77,5,50.1.07,54.22" style="fill:#455a64"></path><path d="M535,299l5.55,27.5,29.54-9.52,10.43-36.62a28,28,0,0,0-15.61,2.85C557.05,287.23,535,299,535,299Z" style="fill:#455a64"></path><g style="opacity:0.30000000000000004"><path d="M574.46,361.06a11.64,11.64,0,0,1,2.91-3.83,94.77,94.77,0,0,1,50.16-25.46l1.38,1.35-13.21,16c-2.18,2.64-5,5.54-8.36,5.13-1.41-.17-2.74-.92-4.16-.87-2.22.09-3.82,2.05-5.32,3.69a29.83,29.83,0,0,1-23.87,9.4A12.55,12.55,0,0,1,574.46,361.06Z"></path></g><path d="M573.82,366.85c.56,9.45-2,24.51-.78,33.9,7-1.67,18.42-.82,24.59,2.85,3.2,1.91,6,4.47,9.43,6,5.73,2.6,12.39,2,18.53.67s12.2-3.42,18.49-3.65l-22.39-22.91Z" style="fill:#455a64"></path><path d="M577.65,381.46a8.86,8.86,0,0,0,.29,2.13,12.45,12.45,0,0,0,.86,2.37,17.1,17.1,0,0,0,1.78,2.83,23.6,23.6,0,0,0,6.6,5.61c2.8,1.71,6.1,3.14,9.41,4.9a41,41,0,0,1,4.66,2.85c1.44,1,2.81,2.06,4.15,3a29.7,29.7,0,0,0,4,2.37,15.78,15.78,0,0,0,3.86,1.26,10.74,10.74,0,0,0,5.8-.4,6.31,6.31,0,0,0,1.87-1.06,15.43,15.43,0,0,1-1.92.92,10.81,10.81,0,0,1-5.7.27,15.15,15.15,0,0,1-3.77-1.28,29.82,29.82,0,0,1-3.94-2.37c-1.33-.93-2.69-2-4.14-3a39.42,39.42,0,0,0-4.69-2.89c-3.33-1.77-6.62-3.19-9.41-4.86a23.75,23.75,0,0,1-6.56-5.48,16.22,16.22,0,0,1-1.81-2.76,14,14,0,0,1-.91-2.31C577.72,382.22,577.69,381.45,577.65,381.46Z" style="fill:#263238"></path><path d="M580.64,367a9.5,9.5,0,0,0,.63,1.06c.43.67,1.07,1.63,1.9,2.79A100.24,100.24,0,0,0,598,387.35c1.06.95,1.94,1.69,2.56,2.19a7.62,7.62,0,0,0,1,.75,9.19,9.19,0,0,0-.89-.86c-.59-.53-1.44-1.31-2.48-2.28-2.07-1.93-4.87-4.69-7.76-7.91s-5.31-6.31-7-8.59c-.85-1.14-1.52-2.07-2-2.71A7.13,7.13,0,0,0,580.64,367Z" style="fill:#263238"></path><path d="M566.1,305a6.84,6.84,0,0,0,0,1.07c0,.69,0,1.69.09,2.92.11,2.46.36,5.85.78,9.58s.87,7.11,1.22,9.54c.16,1.17.3,2.14.41,2.89a7.33,7.33,0,0,0,.17,1.05,4.37,4.37,0,0,0,0-1.07c-.05-.69-.16-1.68-.3-2.9-.29-2.51-.68-5.85-1.1-9.55s-.71-7.11-.9-9.56c-.08-1.17-.15-2.15-.21-2.9A5.24,5.24,0,0,0,566.1,305Z" style="fill:#263238"></path><path d="M566.46,285.37a5.18,5.18,0,0,0-.48,1.52,22.54,22.54,0,0,0-.54,3.8,21.46,21.46,0,0,0,.13,3.84,6.07,6.07,0,0,0,.31,1.56c.12,0-.22-2.42-.06-5.38S566.57,285.4,566.46,285.37Z" style="fill:#263238"></path><g style="opacity:0.30000000000000004"><path d="M600,388.67c3.86,2.9,7.24,6,11.21,8.88a27.56,27.56,0,0,1-16.55-7.26c-4.47-4-7.6-9.1-8.27-14.93Z"></path></g><path d="M618.22,339.74s-45.39,28.81-52.07,29.35c-14.46,1.16-41.56-37.93-41.56-37.93l8.74-10.41s30.19,23.11,32.35,22.94c4.29-.34,34.94-23,34.94-23Z" style="fill:#ffbe9d"></path><path d="M533.81,321s-3.07-9.72-4.76-11.16c-.63-.54-1.53-1.35-2.4-2.14a5.35,5.35,0,0,0-6.25-.71l-1.22.69s-2.8-1.24-3.73-.27a25.23,25.23,0,0,0-2.42,3.56,8,8,0,0,0-3.48,1.4,10.72,10.72,0,0,0-1.68,1.54s-2.41.81-3.06,2.54l-.65,1.74s-2.11,1.74-1.84,3.74.89,1.28.89,1.28l2.13-.06s12.93,7.19,15.55,7.66a18.31,18.31,0,0,0,4.3.33Z" style="fill:#ffbe9d"></path><path d="M502.66,323.38a2.45,2.45,0,0,1,.77-.14,11.75,11.75,0,0,1,2.32.19h0c1.64,1,4.06,2.35,7.11,4,1.54.81,3.22,1.7,5.11,2.53a10.44,10.44,0,0,0,1.49.54c.53.12,1.06.2,1.6.3,1.08.17,2.2.32,3.36.43l-.12-.06c3.28,4.31,7,9.24,11.17,14.29,3.66,4.43,7.32,8.53,10.87,12,1.77,1.77,3.51,3.38,5.18,4.85a35.5,35.5,0,0,0,5,3.58,30.47,30.47,0,0,0,4.52,2.36,13.58,13.58,0,0,0,3.75.91,6.49,6.49,0,0,0,2.42-.23,3.85,3.85,0,0,0,.59-.24l.19-.11a6.15,6.15,0,0,1-3.19.43,13.75,13.75,0,0,1-3.68-1,30,30,0,0,1-4.46-2.39,36.92,36.92,0,0,1-5-3.59c-1.64-1.47-3.38-3.09-5.13-4.85-3.53-3.52-7.17-7.62-10.83-12.05-4.15-5-7.89-9.95-11.19-14.25l0-.06h-.08c-1.14-.1-2.26-.25-3.34-.42-.54-.08-1.07-.17-1.58-.28a10.85,10.85,0,0,1-1.45-.51c-1.87-.81-3.56-1.69-5.1-2.48-3.06-1.61-5.5-3-7.16-3.89h0a10.72,10.72,0,0,0-2.34-.11,2.06,2.06,0,0,0-.59.12Q502.65,323.36,502.66,323.38Z" style="fill:#eb996e"></path><path d="M513,310.94a7.13,7.13,0,0,0,1-1.37c.27-.46.67-.92,1.06-1.48a1.9,1.9,0,0,1,1.8-.81,11.11,11.11,0,0,1,2.19.31,4,4,0,0,1,1.62.7,9.14,9.14,0,0,0,1,.73c.26.15.42.19.43.17s-.51-.37-1.27-1.11a4,4,0,0,0-1.7-.83,9.82,9.82,0,0,0-2.26-.35,2.22,2.22,0,0,0-2.09,1,17.65,17.65,0,0,0-1,1.56A8.15,8.15,0,0,0,513,310.94Z" style="fill:#eb996e"></path><path d="M511.57,311.4c0,.11,1.06-.24,2.35-.14a22.27,22.27,0,0,1,2.3.45,4.35,4.35,0,0,0-4.65-.31Z" style="fill:#eb996e"></path><path d="M505.29,315.74c.06,0,.26-.35.78-.75a4.24,4.24,0,0,1,2.37-.84,9.9,9.9,0,0,1,2.59.29,3.22,3.22,0,0,0,1.1.18,3.13,3.13,0,0,0-1-.44,7.78,7.78,0,0,0-2.68-.41,4,4,0,0,0-2.53,1A1.67,1.67,0,0,0,505.29,315.74Z" style="fill:#eb996e"></path><path d="M503.78,318.69c.06,0,.12-.24.38-.5a1.85,1.85,0,0,1,1.27-.53,4.54,4.54,0,0,1,1.46.26c.38.12.62.19.64.14s-.18-.2-.54-.39a3.52,3.52,0,0,0-1.57-.4A1.91,1.91,0,0,0,504,318C503.7,318.4,503.74,318.69,503.78,318.69Z" style="fill:#eb996e"></path><path d="M565.24,353.46c.11,0,0-2.2.09-4.89s.25-4.88.14-4.89a29.73,29.73,0,0,0-.23,9.78Z" style="fill:#eb996e"></path><path d="M525.51,306.87s.31.16.8.54a11.68,11.68,0,0,1,1.89,1.82c1.51,1.66,2.41,4.67,3.78,7.81l1.67,4,0,0,0,0c1.87,1.44,3.47,2.66,4.61,3.51l1.34,1a2.68,2.68,0,0,0,.51.32,2.36,2.36,0,0,0-.44-.42l-1.28-1.06c-1.1-.9-2.67-2.16-4.52-3.62l.06.07-1.65-4c-.66-1.57-1.29-3.07-1.86-4.45a11.82,11.82,0,0,0-2.07-3.38A6.54,6.54,0,0,0,525.51,306.87Z" style="fill:#eb996e"></path><path d="M639.51,328.07,606,351.35l-22-21.81s30.48-33.49,36.92-32.55S644.11,299.34,639.51,328.07Z" style="fill:#455a64"></path><path d="M612.75,303.21l-.18.05a2.4,2.4,0,0,0-.51.24,14.77,14.77,0,0,0-1.8,1.21c-1.51,1.15-3.62,2.93-6.2,5.24-5.17,4.63-12.25,11.37-20.31,19.34l-.13.13.13.12L595.32,341l10.46,10.32.1.1.12-.07A139.15,139.15,0,0,0,619.32,342c1.95-1.5,3.75-3,5.42-4.32s3.33-2.44,4.81-3.48,2.8-2,3.89-2.91a21.35,21.35,0,0,0,2.57-2.56,12.84,12.84,0,0,0,.8-1,7.77,7.77,0,0,0,.53-.8c.13-.21.22-.38.3-.5s.1-.18.09-.18l-.12.16-.32.49c-.14.22-.33.47-.56.77a11.44,11.44,0,0,1-.82,1,22.53,22.53,0,0,1-2.59,2.5c-1.09.91-2.41,1.85-3.9,2.86s-3.16,2.11-4.86,3.45-3.48,2.8-5.43,4.29A142.32,142.32,0,0,1,605.82,351l.22,0-10.45-10.34L584,329.29v.25c8-8,15.1-14.74,20.21-19.42,2.56-2.33,4.64-4.14,6.13-5.31a18.72,18.72,0,0,1,1.75-1.26A4.66,4.66,0,0,1,612.75,303.21Z" style="fill:#263238"></path><path d="M623.14,300.34a29.86,29.86,0,0,1,3.37.52,15.17,15.17,0,0,1,11.16,10.86,28.53,28.53,0,0,1,.61,3.35,3,3,0,0,0,0-.92,12.83,12.83,0,0,0-.37-2.5,15,15,0,0,0-4.07-7.18,15.23,15.23,0,0,0-7.29-3.88,14.41,14.41,0,0,0-2.51-.3A4.21,4.21,0,0,0,623.14,300.34Z" style="fill:#263238"></path><path d="M610.92,259.21a87.57,87.57,0,0,0,4.82-14.31,30.66,30.66,0,0,0-.16-15c-.21-.73-2.14-5.68-2.91-5.66-.54,0,.54,4.58.23,5-2.93,4.31-4,9.66-4,14.87a68.59,68.59,0,0,0,2,15" style="fill:#263238"></path><path d="M580.78,285.1c.21-3.55.36-6.36.33-6.36s-12.09-2.08-12.05-14.21c0-5.85,1.05-17.91,2.11-28.81A22.6,22.6,0,0,1,594,215.3l1.17,0c12.6.94,18.85,12.17,17.56,24.75l-3.12,44.12-9.26,9.6a11.41,11.41,0,0,1-19.6-8.69Z" style="fill:#ffbe9d"></path><path d="M581.11,278.74A29.24,29.24,0,0,0,597,274.33s-4,8.76-16.08,7.47Z" style="fill:#eb996e"></path><path d="M574,245.74a1.73,1.73,0,0,0,1.64,1.77,1.66,1.66,0,0,0,1.81-1.53,1.74,1.74,0,0,0-1.64-1.78A1.66,1.66,0,0,0,574,245.74Z" style="fill:#263238"></path><path d="M573.68,240.79c.21.22,1.54-.73,3.4-.69s3.22,1,3.42.76-.11-.51-.7-1a4.7,4.7,0,0,0-2.73-.89,4.57,4.57,0,0,0-2.71.83C573.78,240.28,573.58,240.68,573.68,240.79Z" style="fill:#263238"></path><path d="M591.38,246.41a1.74,1.74,0,0,0,1.65,1.78,1.66,1.66,0,0,0,1.81-1.54,1.73,1.73,0,0,0-1.64-1.77A1.66,1.66,0,0,0,591.38,246.41Z" style="fill:#263238"></path><path d="M591.92,241.83c.21.23,1.54-.72,3.41-.68s3.21,1,3.41.76-.1-.51-.7-.95a4.7,4.7,0,0,0-2.73-.89,4.57,4.57,0,0,0-2.71.83C592,241.33,591.82,241.73,591.92,241.83Z" style="fill:#263238"></path><path d="M585,256a12.94,12.94,0,0,0-3-.59c-.48-.06-.93-.16-1-.49a2.39,2.39,0,0,1,.34-1.4c.47-1.14.95-2.34,1.47-3.6,2-5.13,3.52-9.35,3.31-9.43s-2,4-4.06,9.14c-.5,1.26-1,2.47-1.41,3.62a2.77,2.77,0,0,0-.28,1.87,1.23,1.23,0,0,0,.77.71,3.78,3.78,0,0,0,.81.12A11.89,11.89,0,0,0,585,256Z" style="fill:#263238"></path><path d="M592.15,234.27c.17.51,2,.3,4.22.6s3.94.93,4.24.48c.13-.22-.17-.7-.87-1.2a7.46,7.46,0,0,0-6.45-.82C592.48,233.64,592.07,234,592.15,234.27Z" style="fill:#263238"></path><path d="M574.55,234.6c.32.43,1.61,0,3.16,0s2.84.33,3.15-.11c.14-.21-.06-.64-.63-1a4.58,4.58,0,0,0-5.08.08C574.6,234,574.41,234.39,574.55,234.6Z" style="fill:#263238"></path><path d="M611.62,249c.21-.09,8.37-2.33,8,6s-8.63,6.17-8.64,5.93S611.62,249,611.62,249Z" style="fill:#ffbe9d"></path><path d="M613.64,257.91s.14.1.37.23a1.46,1.46,0,0,0,1.08.07c.89-.28,1.7-1.63,1.81-3.12a4.72,4.72,0,0,0-.31-2.09,1.65,1.65,0,0,0-1-1.16.74.74,0,0,0-.87.36c-.12.22-.08.39-.12.4s-.17-.15-.09-.48a.91.91,0,0,1,.35-.51,1.1,1.1,0,0,1,.81-.17,2,2,0,0,1,1.45,1.36,5,5,0,0,1,.39,2.33c-.14,1.67-1.07,3.19-2.28,3.48a1.55,1.55,0,0,1-1.31-.29C613.64,258.11,613.61,257.92,613.64,257.91Z" style="fill:#eb996e"></path><path d="M577.31,222.3c-1.3-.82,3-4.93,6.35-6.24,5.11-2,12.79-2.93,17.31-1.37,5.43,1.89,9.87,4.9,12.36,10.09a32.66,32.66,0,0,1,2.7,16.84,9.94,9.94,0,0,1-1.45,5c-1.26,1.76-3.55,2.79-3.59,5.32a3.49,3.49,0,0,1-1,2.48c-1.61,1.53-3.37-.09-4.14-1.66-1.63-3.35-1.62-7.23-1.57-11a24.27,24.27,0,0,1,1-7.84c.48-1.36,1.21-2.63,1.61-4a5,5,0,0,0-.35-4.17,5.6,5.6,0,0,0-.63-.72,8.66,8.66,0,0,0-8.48-2.12c-4.75,1.39-12.86,3.4-14.85,1.7-2.86-2.45-3.49-4-3.49-4Z" style="fill:#263238"></path><path d="M582.31,261.74c0,.14.28.45,1,.66a4.77,4.77,0,0,0,2.77-.06,4.85,4.85,0,0,0,2.29-1.54c.44-.57.54-1,.41-1.1s-1.29,1-3,1.55S582.44,261.44,582.31,261.74Z" style="fill:#263238"></path><path d="M494.17,426.78c-.24-6.58,1.11-7.65,1.85-8.86s1.28-1.87,1.3-3.3.3-7.64.36-9.63.71-5,.47-6a1.62,1.62,0,0,1,0-.19,3.53,3.53,0,0,1,2.52-.6c.19,0,.36.07.52.11a2.45,2.45,0,0,0,1.32.07l.58-.17a3.09,3.09,0,0,1,1.21-.21,2.36,2.36,0,0,1,.75.19c0,.17-.06.39-.11.65-.2,1,.6,4,.73,5.95s.71,8.18.78,9.6.67,2.08,1.45,3.24,2.18,2.18,2.23,8.77.28,21.24.28,21.24c0,.68,0,1.42,0,2.12a6.91,6.91,0,0,1-1.18,4,3.39,3.39,0,0,1-2.56,1l-3.89.1-3.88.07a3.55,3.55,0,0,1-2.46-.76c-1.66-1.55-1.53-4.2-1.58-6.27C494.83,448,494.41,433.37,494.17,426.78Z" style="fill:#455a64"></path><path d="M497.25,418.63l.27-.43a6.25,6.25,0,0,0,1.23-3.56c0-.75.1-2.91.18-5v-.05c.07-1.78.14-3.63.17-4.57,0-.31,0-.66.07-1l5-.11c0,.36.09.71.12,1,.06.93.22,2.77.37,4.55v.05c.18,2.09.36,4.25.4,5A6.24,6.24,0,0,0,506.5,418c.1.13.19.27.29.41s.22.31.34.47c.68.92,1.62,2.18,1.66,7.55,0,2.37,0,4.75.07,7.12.06,4.17.08,8.35.19,12.52,0,1.7.15,3.33-.79,4.84s-3,1.33-4.34,1.38a37.3,37.3,0,0,1-4.61-.06,3.92,3.92,0,0,1-2.19-.79c-1-.91-.86-3.38-.89-4.61-.1-3.11-.18-6.23-.28-9.34-.11-3.59-.22-7.18-.35-10.77-.19-5.36.69-6.66,1.33-7.61C497.05,419,497.15,418.79,497.25,418.63Z" style="fill:#455a64"></path><path d="M505.52,442.2l4.93-.12-.35-14.79-4.94.12a7.4,7.4,0,0,0-7.22,7.57h0A7.4,7.4,0,0,0,505.52,442.2Z" style="fill:#263238"></path><path d="M498.79,399.8l6-.14a1.05,1.05,0,0,0,1-1.08h0a1.05,1.05,0,0,0-1.07-1l-6.05.14a1.05,1.05,0,0,0-1,1.08h0A1,1,0,0,0,498.79,399.8Z" style="fill:#455a64"></path></g><g id="freepik--character-2--inject-2"><rect x="350.96" y="368.61" width="12.46" height="68.59" transform="translate(708.93 810.58) rotate(-179.23)" style="fill:#455a64"></rect><rect x="377.47" y="369.06" width="12.46" height="61.89" transform="translate(-21.43 778.29) rotate(-89.23)" style="fill:#455a64"></rect><rect x="402.15" y="369.3" width="12.46" height="67.29" transform="translate(811.3 811.34) rotate(-179.23)" style="fill:#455a64"></rect><rect x="340.87" y="355.92" width="87.47" height="16.24" transform="translate(764.28 733.23) rotate(-179.23)" style="fill:#455a64"></rect><path d="M281.5,255.55s-1.87-4-5.27-5.64-8.25-.68-9.6-2.37-6.55-3.75-7.65-2.07-.73,4.09,2.79,5.22a42.63,42.63,0,0,1,6.64,2.86s-22,7.09-23.33,8.12-2.68,2.05-2,3.3,4.74-.47,4.74-.47l9,1.12a31.27,31.27,0,0,0,8.17,2.69c3.94.57,8.73-1.24,8.73-1.24l9.31.79S287.12,259.24,281.5,255.55Z" style="fill:#c17560"></path><path d="M248.22,264.46c.05,0,.05-.22.16-.55a2.38,2.38,0,0,1,.9-1.16,8.15,8.15,0,0,1,4.89-1,21.79,21.79,0,0,1,5.05,1.09,10.25,10.25,0,0,0,2.1.58,7.92,7.92,0,0,0-2-1,17.1,17.1,0,0,0-5.14-1.27,7.82,7.82,0,0,0-5.18,1.21,2.45,2.45,0,0,0-.86,1.42C248.11,264.25,248.19,264.46,248.22,264.46Z" style="fill:#7c4236"></path><path d="M255.41,261a22.89,22.89,0,0,0,6.86-1.92,22.67,22.67,0,0,0-6.86,1.92Z" style="fill:#7c4236"></path><path d="M266.31,256.5a5.27,5.27,0,0,0-2.86,5.85,18.64,18.64,0,0,1,.93-3.17A18.27,18.27,0,0,1,266.31,256.5Z" style="fill:#7c4236"></path><polygon points="405.63 209.78 423.01 214.71 423.88 252.43 422.87 326.91 349.66 323.06 354.66 231.8 362.25 215.87 377 211.95 405.63 209.78" style="fill:#5046E5"></polygon><path d="M446.31,270.5s-4.73-39.28-8.11-44.44c-5-7.61-15.19-11.35-15.19-11.35l-1,41.35s3.5,42.87,4.5,46.32,7.81,8,13.14,7.77,11-2.86,11.24-6.37a36.11,36.11,0,0,1,1.67-7.69Z" style="fill:#5046E5"></path><path d="M285.44,254.11l21.75,3.36a15.69,15.69,0,0,1,8.19,2c3.69,2.29,11.3-.82,11.3-.82l12.41-11.37s9.3-25.1,14.31-27.89c6-3.36,9.77-3.77,9.77-3.77l-6.25,54.51-15.38,15.28s-13.1,2.69-17,1.35S279.8,270,279.8,270Z" style="fill:#5046E5"></path><path d="M353.32,231.05a3.47,3.47,0,0,0-.07.69q0,.75-.09,1.95c-.07,1.77-.16,4.21-.26,7.2-.22,6.14-.52,14.5-.85,23.74s-.57,17.68-.68,23.76c-.06,3-.08,5.5-.08,7.2,0,.81,0,1.46,0,2a3.38,3.38,0,0,0,0,.69,3.42,3.42,0,0,0,.07-.68c0-.51.06-1.16.1-2,.06-1.77.15-4.21.26-7.2.22-6.14.51-14.5.84-23.75s.58-17.67.68-23.75c.06-3,.09-5.5.09-7.2,0-.81,0-1.46,0-2A2.66,2.66,0,0,0,353.32,231.05Z" style="fill:#263238"></path><path d="M324.89,259.55c-.07.07.78.87,2,2.3a28.08,28.08,0,0,1,3.86,6.1,28.51,28.51,0,0,1,2.16,6.89c.32,1.83.38,3,.48,3a2.23,2.23,0,0,0,.06-.82,15.7,15.7,0,0,0-.14-2.23,24.31,24.31,0,0,0-6.12-13.2,16.48,16.48,0,0,0-1.6-1.55C325.15,259.69,324.91,259.52,324.89,259.55Z" style="fill:#263238"></path><path d="M426.18,241.78a3.08,3.08,0,0,1,0,.67c0,.49-.09,1.13-.16,1.92-.16,1.72-.38,4.11-.64,7-.53,5.94-1.16,14.16-1.6,23.25s-.6,17.33-.65,23.29c0,2.94,0,5.33,0,7.06,0,.79,0,1.43,0,1.92a3.42,3.42,0,0,1,0,.68,2.94,2.94,0,0,1-.06-.67c0-.5-.05-1.13-.08-1.92-.06-1.67-.1-4.09-.12-7.07-.05-6,.06-14.22.49-23.32s1.13-17.32,1.75-23.25c.31-3,.59-5.37.81-7,.1-.78.19-1.41.26-1.9A2.9,2.9,0,0,1,426.18,241.78Z" style="fill:#263238"></path><path d="M410.43,279.49a10.43,10.43,0,0,1-.72-1.39,18,18,0,0,1-1.27-4.32,18.35,18.35,0,0,1,.25-7.11c.31-1.37.87-2.75,1.32-4.25a8.62,8.62,0,0,0,.41-4.79,4,4,0,0,0-1.39-2.09,4.68,4.68,0,0,0-2.48-.91,6.36,6.36,0,0,0-5.16,2.06,11.46,11.46,0,0,0-2.5,5.63c-.41,2.13-.44,4.38-.65,6.68a15.46,15.46,0,0,1-1.95,6.87,9,9,0,0,1-2.62,2.67A6.12,6.12,0,0,1,390,279.6a5.45,5.45,0,0,1-3.55-1.6,8.07,8.07,0,0,1-2-3.39,10.42,10.42,0,0,1-.46-4,20.15,20.15,0,0,1,.8-3.93,64.41,64.41,0,0,0,2.21-7.53,8.72,8.72,0,0,0-.22-3.71,3.72,3.72,0,0,0-2.31-2.53,4.3,4.3,0,0,0-3.39.45,6.63,6.63,0,0,0-2.43,2.5,18.29,18.29,0,0,0-1.44,3.23c-.4,1.11-.77,2.21-1.09,3.31a58.1,58.1,0,0,0-1.55,6.53c-.38,2.13-.65,4.33-1.78,6.15a6.23,6.23,0,0,1-2.22,2.17,4.21,4.21,0,0,1-3,.46,5.18,5.18,0,0,1-2.48-1.45,9.06,9.06,0,0,1-1.57-2.22A17.25,17.25,0,0,1,362,264.8a18.64,18.64,0,0,1,2.05-6.81,17,17,0,0,1,2.58-3.68c.35-.39.65-.64.84-.83a1.56,1.56,0,0,1,.3-.26l-.27.3c-.17.2-.46.46-.79.86a18,18,0,0,0-2.48,3.7,18.82,18.82,0,0,0-1.94,6.75,17.08,17.08,0,0,0,1.57,9.07,8.73,8.73,0,0,0,1.53,2.12,4.65,4.65,0,0,0,2.29,1.32,3.76,3.76,0,0,0,2.67-.43,5.69,5.69,0,0,0,2.05-2c1.06-1.71,1.32-3.85,1.69-6a58.9,58.9,0,0,1,1.55-6.58c.32-1.12.69-2.23,1.09-3.35a19,19,0,0,1,1.47-3.31,7.16,7.16,0,0,1,2.61-2.69,4.79,4.79,0,0,1,3.8-.49,4.25,4.25,0,0,1,2.64,2.86,9,9,0,0,1,.24,3.93,60.67,60.67,0,0,1-2.22,7.6,19.15,19.15,0,0,0-.78,3.83,10,10,0,0,0,.43,3.77,7.67,7.67,0,0,0,1.87,3.19,5,5,0,0,0,3.22,1.45,5.63,5.63,0,0,0,3.37-1,8.33,8.33,0,0,0,2.47-2.51,14.86,14.86,0,0,0,1.89-6.64c.22-2.28.25-4.55.68-6.73a11.85,11.85,0,0,1,2.63-5.83,6.8,6.8,0,0,1,5.51-2.17,5.14,5.14,0,0,1,2.69,1,4.36,4.36,0,0,1,1.5,2.3,9,9,0,0,1-.44,5c-.47,1.51-1,2.88-1.36,4.22a18.21,18.21,0,0,0-.33,7,18.59,18.59,0,0,0,1.17,4.31C410.19,279,410.46,279.48,410.43,279.49Z" style="fill:#fff"></path><path d="M329.49,400.2l.66,36.49-45.4,1.06c.17-4.35,23.45-13.6,23.45-13.6l-1.38-23.36Z" style="fill:#5046E5"></path><g style="opacity:0.6000000000000001"><path d="M322.2,421.86a1.86,1.86,0,0,1,1.33,2.09,1.78,1.78,0,0,1-2.06,1.33,2,2,0,0,1-1.4-2.21,1.86,1.86,0,0,1,2.3-1.16" style="fill:#fff"></path></g><g style="opacity:0.6000000000000001"><path d="M330.15,436.69l-.21-3.67-43.45,2.38s-2,.93-1.74,2.35Z" style="fill:#fff"></path></g><path d="M307.46,423.94c0,.22,1.13.29,2.23,1s1.71,1.61,1.91,1.51-.15-1.36-1.51-2.17S307.41,423.74,307.46,423.94Z" style="fill:#263238"></path><path d="M302.75,426c-.05.21.92.57,1.69,1.49s1,1.91,1.24,1.89.33-1.27-.65-2.4S302.75,425.81,302.75,426Z" style="fill:#263238"></path><path d="M300.17,431.78c.21,0,.49-1.07-.11-2.27s-1.64-1.66-1.73-1.48.56.82,1,1.82S300,431.76,300.17,431.78Z" style="fill:#263238"></path><path d="M307.74,418.58c.1.2,1.11-.13,2.36-.08s2.24.43,2.35.24-.84-1-2.32-1S307.63,418.41,307.74,418.58Z" style="fill:#263238"></path><path d="M308.69,413.17a4.39,4.39,0,0,0,2.28-.07,10.46,10.46,0,0,0,2.36-.78,12,12,0,0,0,1.29-.73,2.66,2.66,0,0,0,.67-.55,1,1,0,0,0,.08-1.18,1.23,1.23,0,0,0-1-.48,3,3,0,0,0-.85.13,9.23,9.23,0,0,0-1.4.52,7.91,7.91,0,0,0-2.06,1.43c-1,1-1.37,1.83-1.3,1.87s.6-.63,1.66-1.46a9,9,0,0,1,2-1.19,8.13,8.13,0,0,1,1.29-.43c.48-.14.89-.15,1,.06s.05.11-.05.25a2.1,2.1,0,0,1-.49.4,11.79,11.79,0,0,1-1.19.72,11.94,11.94,0,0,1-2.18.89A16.82,16.82,0,0,0,308.69,413.17Z" style="fill:#263238"></path><path d="M309,413.48a3.66,3.66,0,0,0,.55-2.21,7.34,7.34,0,0,0-1-3.85,1.89,1.89,0,0,0-1.48-1.12,1.07,1.07,0,0,0-.93.66,3.27,3.27,0,0,0-.22.84,5.19,5.19,0,0,0,0,1.53,5.27,5.27,0,0,0,1,2.33c.92,1.15,1.85,1.4,1.87,1.32s-.72-.52-1.42-1.64a5.26,5.26,0,0,1-.77-2.12,4.8,4.8,0,0,1,0-1.31c.06-.49.23-.88.42-.84s.61.35.81.73a7.57,7.57,0,0,1,.59,1.22,8,8,0,0,1,.49,2.26C309.09,412.61,308.87,413.45,309,413.48Z" style="fill:#263238"></path><path d="M397.73,400.2l-13.61,33.86,42.05,17.15c1.39-4.11-17.08-21-17.08-21l9.61-21.34Z" style="fill:#5046E5"></path><g style="opacity:0.6000000000000001"><path d="M396.83,423a1.86,1.86,0,0,0-2,1.48,1.77,1.77,0,0,0,1.44,2,2,2,0,0,0,2.1-1.57c0-.91-.83-2-1.73-1.9" style="fill:#fff"></path></g><g style="opacity:0.6000000000000001"><path d="M384.12,434.06l1.5-3.36,39.75,17.7s1.54,1.58.8,2.81Z" style="fill:#fff"></path></g><path d="M409.86,430.22c-.09.21-1.15-.12-2.43.13s-2.17.89-2.33.73.63-1.22,2.19-1.49S410,430.05,409.86,430.22Z" style="fill:#263238"></path><path d="M413.53,433.85c0,.21-1.07.2-2.12.78s-1.63,1.43-1.83,1.33.14-1.3,1.47-2S413.6,433.65,413.53,433.85Z" style="fill:#263238"></path><path d="M413.88,440.15c-.2,0-.07-1.18.91-2.09s2.13-1,2.15-.76-.82.57-1.62,1.33S414.09,440.21,413.88,440.15Z" style="fill:#263238"></path><path d="M411.51,425.12c-.16.15-1-.52-2.18-.91s-2.25-.4-2.28-.62,1.13-.6,2.53-.11S411.68,425,411.51,425.12Z" style="fill:#263238"></path><path d="M412.55,419.72a4.35,4.35,0,0,1-2.11-.87,10.3,10.3,0,0,1-1.92-1.58,9.77,9.77,0,0,1-.95-1.13,3.11,3.11,0,0,1-.44-.76,1,1,0,0,1,.36-1.13,1.22,1.22,0,0,1,1.09-.1,3,3,0,0,1,.74.43,8.43,8.43,0,0,1,1.13,1,8,8,0,0,1,1.42,2.06,3.74,3.74,0,0,1,.54,2.22c-.12,0-.33-.81-1-2a8.94,8.94,0,0,0-1.45-1.82,7.59,7.59,0,0,0-1.05-.87c-.4-.3-.78-.46-1-.31s-.09.09-.05.26a2,2,0,0,0,.32.55,10.83,10.83,0,0,0,.85,1.09,11.9,11.9,0,0,0,1.72,1.61A18.09,18.09,0,0,1,412.55,419.72Z" style="fill:#263238"></path><path d="M412.16,419.9a3.53,3.53,0,0,1,.27-2.26,7.67,7.67,0,0,1,1.23-2.19,7.53,7.53,0,0,1,1.06-1.05,1.86,1.86,0,0,1,1.77-.52,1,1,0,0,1,.64.95,2.88,2.88,0,0,1-.09.86,5.09,5.09,0,0,1-.58,1.41,5.16,5.16,0,0,1-1.79,1.81,3,3,0,0,1-2.21.58,19.94,19.94,0,0,0,1.91-1,5.24,5.24,0,0,0,1.47-1.71,4.74,4.74,0,0,0,.46-1.23c.11-.47.09-.9-.09-.92a1.29,1.29,0,0,0-1,.39,7.28,7.28,0,0,0-1,.92,8.47,8.47,0,0,0-1.26,1.94C412.38,419.06,412.28,419.92,412.16,419.9Z" style="fill:#263238"></path><path d="M409,319.23s17.06-14.72,24.45-14.5,31.68-1.06,21.06,32.43c-10.72,33.76-29.79,85.34-30.26,83.48l-31.43-14.33,13.5-48s-43.1-.1-51.41-1.3-23.72-12.37-23.72-12.37l1.65,61-33-2.29S296.21,330,295.07,315c-1-13.11,13.93-27.61,28.89-24.09,9.78,2.29,44.48,27.5,44.48,27.5Z" style="fill:#263238"></path><path d="M330.52,312.19a8.92,8.92,0,0,0,0,1.6c.05,1.12.1,2.58.17,4.34.12,3.66.17,8.73.18,14.32s.05,10.68.2,14.35c.06,1.84.15,3.32.24,4.34a9.92,9.92,0,0,0,.18,1.59,8.29,8.29,0,0,0,0-1.6c0-1.12,0-2.58-.06-4.34,0-3.77,0-8.79,0-14.34s-.13-10.67-.35-14.34c-.11-1.84-.23-3.32-.34-4.34A8.25,8.25,0,0,0,330.52,312.19Z" style="fill:#455a64"></path><path d="M331.47,340.73A6.32,6.32,0,0,0,333,339a19.71,19.71,0,0,0,2.44-5,19.43,19.43,0,0,0,.95-5.43,6.38,6.38,0,0,0-.17-2.28,26.76,26.76,0,0,1-4.7,14.4Z" style="fill:#455a64"></path><path d="M376.26,353.68c.06,0,.14-.83.41-2.31a30.09,30.09,0,0,1,1.82-6.11,31.31,31.31,0,0,1,4.88-8.05,30.17,30.17,0,0,1,8.94-7.22c7.23-4.06,13.59-8,18-11.17,2.22-1.55,4-2.89,5.13-3.87.59-.48,1-.89,1.31-1.16s.44-.42.43-.44-.67.51-1.88,1.43-3,2.21-5.21,3.72c-4.49,3-10.87,6.95-18.08,11a31.7,31.7,0,0,0-5.05,3.37,32.3,32.3,0,0,0-4,4,30.73,30.73,0,0,0-4.86,8.23,27.31,27.31,0,0,0-1.66,6.22,15.94,15.94,0,0,0-.18,1.74A2.56,2.56,0,0,0,376.26,353.68Z" style="fill:#455a64"></path><path d="M365.08,317.83a8.84,8.84,0,0,0,.53,1.42c.39.89.9,2.2,1.49,3.83a68.53,68.53,0,0,1,4,26.62c-.08,1.73-.19,3.13-.29,4.1a8.13,8.13,0,0,0-.09,1.51,6.89,6.89,0,0,0,.3-1.48c.17-1,.34-2.37.47-4.11a61.55,61.55,0,0,0-4-26.77c-.64-1.63-1.22-2.92-1.66-3.79A7.32,7.32,0,0,0,365.08,317.83Z" style="fill:#455a64"></path><path d="M428.52,314.3a4.17,4.17,0,0,0-.46.29l-1.28.91-.92.66c-.32.25-.65.57-1,.89a24.29,24.29,0,0,0-2.38,2.26l-1.3,1.41c-.42.52-.83,1.07-1.27,1.64l-.67.86c-.22.31-.41.63-.62.95-.41.64-.86,1.29-1.27,2a62.13,62.13,0,0,0-4.37,9.51c-1.29,3.49-2.28,6.89-3.17,10s-1.64,5.87-2.3,8.22-1.22,4.22-1.63,5.51l-.44,1.5a2.24,2.24,0,0,0-.13.53,3,3,0,0,0,.2-.5c.13-.38.3-.87.52-1.48.45-1.28,1-3.16,1.74-5.48s1.49-5.12,2.39-8.2,1.9-6.46,3.19-9.93a62,62,0,0,1,4.32-9.46c.4-.69.84-1.34,1.24-2,.2-.32.39-.64.6-.94l.66-.87c.43-.56.83-1.12,1.24-1.64l1.27-1.41a26,26,0,0,1,2.32-2.29c.36-.32.67-.64,1-.9l.9-.69,1.23-1A2.26,2.26,0,0,0,428.52,314.3Z" style="fill:#455a64"></path><path d="M409.38,318.93c-6.07,3.89-12.7,4.74-19.8,6-4.1.73-8.38,1.38-12.35.15-8.51-2.64-16.65-12.48-22.09-16L372.23,304Z" style="fill:#5046E5"></path><path d="M390.8,143h-1.2a23.25,23.25,0,0,0-22.93,21.65c-.78,11.24-1.5,23.67-1.35,29.69.29,12.47,12.79,14.27,12.79,14.27l-.09,5.09a15.15,15.15,0,0,0,15,15.43h0a15.15,15.15,0,0,0,15.35-14.75L409.55,168C410.52,155,403.79,143.64,390.8,143Z" style="fill:#c17560"></path><path d="M378,208.63a30.24,30.24,0,0,0,16.29-5s-3.74,9-16.2,8Z" style="fill:#7c4236"></path><path d="M370.51,175.55a1.77,1.77,0,0,0,1.73,1.78,1.7,1.7,0,0,0,1.82-1.63,1.77,1.77,0,0,0-1.73-1.78A1.7,1.7,0,0,0,370.51,175.55Z" style="fill:#263238"></path><path d="M369.42,170.76c.22.23,1.56-.79,3.48-.8s3.33.92,3.54.68-.13-.52-.75-1a5,5,0,0,0-2.84-.84,4.72,4.72,0,0,0-2.76.93C369.5,170.23,369.31,170.65,369.42,170.76Z" style="fill:#263238"></path><path d="M387.52,175.44a1.78,1.78,0,0,0,1.73,1.78,1.71,1.71,0,0,0,1.82-1.63,1.78,1.78,0,0,0-1.73-1.78A1.7,1.7,0,0,0,387.52,175.44Z" style="fill:#263238"></path><path d="M388.27,170.9c.22.23,1.56-.78,3.48-.8s3.33.93,3.53.69-.12-.52-.74-1a4.86,4.86,0,0,0-2.84-.84,4.66,4.66,0,0,0-2.76.93C388.35,170.37,388.16,170.8,388.27,170.9Z" style="fill:#263238"></path><path d="M381.47,185.2a12.26,12.26,0,0,0-3.12-.53c-.49,0-1-.14-1-.47a2.52,2.52,0,0,1,.31-1.46c.45-1.18.91-2.43,1.41-3.74,2-5.33,3.35-9.71,3.14-9.79s-2,4.19-3.92,9.52l-1.35,3.76a2.83,2.83,0,0,0-.23,1.93,1.22,1.22,0,0,0,.81.7,3.39,3.39,0,0,0,.83.11A12.65,12.65,0,0,0,381.47,185.2Z" style="fill:#263238"></path><path d="M387.69,163.39c.19.52,2.1.25,4.35.5s4.08.84,4.38.37c.13-.23-.2-.72-.93-1.21a7.6,7.6,0,0,0-6.65-.66C388,162.73,387.6,163.15,387.69,163.39Z" style="fill:#263238"></path><path d="M370.06,165.2c.34.43,1.66,0,3.25-.07s2.93.25,3.24-.2c.13-.23-.09-.66-.68-1.07a4.73,4.73,0,0,0-5.23.22C370.09,164.54,369.91,165,370.06,165.2Z" style="fill:#263238"></path><path d="M367.8,159s3.2-7.85,6.95-9.72c4.54-2.26,6.56,2.73,10.89,1.46s8.66-3.43,13.14-.12c4.9,3.62,2.66,6.23,3,11.76,1.47,22.43,5.64,28.73,6.69,18.14.11-1.16,3.32-2.11,3.74-7,.54-6.35.7-14.06-.77-18.55-1.24-3.78-3.43-6.38-7.34-9.22-6.18-4.5-14.59-4.5-20.3-3.86S367.17,149.17,367.8,159Z" style="fill:#263238"></path><path d="M407.69,180.14a3.38,3.38,0,0,1,3.62-3.3c2.33.19,4.93,1.49,4.83,6.29-.17,8.54-8.7,6.6-8.71,6.36S407.58,183.71,407.69,180.14Z" style="fill:#c17560"></path><path d="M409.35,186.31s.15.11.39.23a1.53,1.53,0,0,0,1.12.05c.9-.32,1.69-1.73,1.76-3.27a4.74,4.74,0,0,0-.37-2.13,1.73,1.73,0,0,0-1.09-1.17.77.77,0,0,0-.89.39c-.12.24-.07.41-.11.42s-.18-.14-.11-.5a1,1,0,0,1,.35-.52,1.14,1.14,0,0,1,.83-.2,2.09,2.09,0,0,1,1.52,1.35,5,5,0,0,1,.47,2.39c-.09,1.72-1,3.31-2.25,3.64a1.62,1.62,0,0,1-1.35-.25C409.36,186.52,409.32,186.33,409.35,186.31Z" style="fill:#7c4236"></path><path d="M366.51,157.26c2.61,1.34,6.12-.07,7.46-2.67a4.18,4.18,0,0,0,6.28-1.83c1.43,1.49,3.88,1.36,5.77.54s3.5-2.18,5.4-3a9.72,9.72,0,0,1,6-.38c-1.26,2.22.67,5.2,2.57,8.4,1.09,1.85,2.48,3.76,3.41,5.7s3.27,3.36,5.25,2.54c1.63-.68,2.4-2.5,3-4.15,1.12-3,2.25-6.43,1.11-9.47-.77-2-2.36-4.86-4.16-6.09-2.84-1.94-3.69-1.43-3.69-1.43s-.4-3.42-3.05-5a6.48,6.48,0,0,0-6.49-.16s-2.08-4.05-7.67-3.65c-4.31.31-5.26,2.53-8.07,3-1.74.3-3.64-.36-5.24.39-2.7,1.27-2.52,5.39-4.75,7.36-1.23,1.08-3,1.35-4.25,2.42C363.15,151.8,363.9,155.92,366.51,157.26Z" style="fill:#263238"></path><path d="M412.34,160.39a11.1,11.1,0,0,0-.85,2,4.1,4.1,0,0,1-1.28,1.81,3.67,3.67,0,0,1-2.61.48,6.28,6.28,0,0,1-2.62-.9,10.1,10.1,0,0,1-1.77-1.48,13.58,13.58,0,0,0-1.53-1.56,7.34,7.34,0,0,0,1.27,1.8,9,9,0,0,0,1.78,1.64,6.47,6.47,0,0,0,2.81,1,4,4,0,0,0,2.95-.62,4.23,4.23,0,0,0,1.34-2.06A8.38,8.38,0,0,0,412.34,160.39Z" style="fill:#455a64"></path><path d="M412.48,167a7.26,7.26,0,0,1-1.62,1.05,4.75,4.75,0,0,1-2,.31,5.77,5.77,0,0,1-2.4-.73,11.67,11.67,0,0,1-3.43-3.14,9.4,9.4,0,0,0-1.26-1.53,6.39,6.39,0,0,0,1,1.74,10.34,10.34,0,0,0,3.48,3.38,5.89,5.89,0,0,0,2.61.75,4.8,4.8,0,0,0,2.19-.46A2.69,2.69,0,0,0,412.48,167Z" style="fill:#455a64"></path><path d="M412.5,171.86a7.37,7.37,0,0,1-1.61.81,5.17,5.17,0,0,1-4.13-.64,11.87,11.87,0,0,1-3.18-3,8.12,8.12,0,0,0-1.2-1.43,6.13,6.13,0,0,0,.91,1.64,10.47,10.47,0,0,0,3.21,3.22,6,6,0,0,0,2.43.82A4.61,4.61,0,0,0,411,173C412.14,172.57,412.55,171.88,412.5,171.86Z" style="fill:#455a64"></path><path d="M387.11,188a10.76,10.76,0,0,1,.68,2.82,3.28,3.28,0,0,1-.76,2.57,3.56,3.56,0,0,1-2.66,1.46h0a4,4,0,0,1-4.15-3.1l-.48-2.09C381.67,188.94,387,188.09,387.11,188Z" style="fill:#7c4236"></path><path d="M382.3,194.33s.25,0,.68,0a5.62,5.62,0,0,0,1.8-.11,3.47,3.47,0,0,0,2.09-1.42,4.59,4.59,0,0,0,.08-4.74l.28.12c-1.89.42-3.55.76-4.73,1a8.64,8.64,0,0,1-1.92.27,7.65,7.65,0,0,1,1.84-.59c1.17-.32,2.81-.72,4.69-1.17l.18,0,.09.15a4.58,4.58,0,0,1,.66,1.9,4.67,4.67,0,0,1-.78,3.39,3.76,3.76,0,0,1-2.41,1.5,5,5,0,0,1-1.9,0C382.52,194.46,382.29,194.36,382.3,194.33Z" style="fill:#263238"></path><path d="M437.22,280a6.57,6.57,0,0,0-2.86-.68,2.24,2.24,0,0,0-2.12,1.73,3.29,3.29,0,0,0,1.4,2.52l4.06,3.84Z" style="fill:#c17560"></path><path d="M436.26,281.85c0-6.59,1.4-7.61,2.18-8.78s1.35-1.83,1.42-3.25.59-7.63.72-9.62.9-4.92.69-5.95l0-.19a3.51,3.51,0,0,1,2.54-.5,3.59,3.59,0,0,1,.52.13,2.46,2.46,0,0,0,1.31.12c.2,0,.4-.1.59-.15a3.07,3.07,0,0,1,1.22-.16,2.67,2.67,0,0,1,.74.21c0,.17-.07.39-.14.65-.23,1,.45,4,.52,6s.39,8.2.42,9.63.58,2.09,1.32,3.29,2.1,2.26,1.9,8.85-.51,21.23-.51,21.23c0,.68,0,1.42-.07,2.12a6.88,6.88,0,0,1-1.33,4,3.36,3.36,0,0,1-2.6.93c-1,0-2.42,0-3.89,0l-3.88-.08a3.53,3.53,0,0,1-2.42-.84c-1.61-1.62-1.37-4.26-1.36-6.33C436.12,303.09,436.26,288.44,436.26,281.85Z" style="fill:#455a64"></path><path d="M439.64,273.82c.1-.15.19-.29.29-.42a6.26,6.26,0,0,0,1.36-3.52c0-.74.21-2.9.37-5v0c.14-1.78.28-3.62.34-4.56,0-.31.06-.66.11-1l5,.08c0,.36.07.71.08,1,0,.94.11,2.78.2,4.57v0c.1,2.1.2,4.26.22,5a6.26,6.26,0,0,0,1.25,3.56l.27.43c.1.16.21.31.32.48.65.94,1.54,2.24,1.38,7.61-.07,2.37-.14,4.74-.19,7.11-.1,4.17-.23,8.35-.28,12.52,0,1.7,0,3.34-1,4.81s-3,1.22-4.39,1.21a37.19,37.19,0,0,1-4.6-.22,4,4,0,0,1-2.16-.88c-1-.94-.73-3.41-.72-4.64,0-3.11.05-6.23.07-9.35q0-5.39.06-10.77c0-5.37.93-6.63,1.61-7.56C439.43,274.13,439.54,274,439.64,273.82Z" style="fill:#455a64"></path><path d="M447,297.68l4.94.07.2-14.8-4.94-.07a7.4,7.4,0,0,0-7.49,7.3h0A7.39,7.39,0,0,0,447,297.68Z" style="fill:#263238"></path><path d="M441.89,255.06l6,.08a1.06,1.06,0,0,0,1.07-1h0a1.06,1.06,0,0,0-1-1.07l-6-.08a1.07,1.07,0,0,0-1.07,1h0A1.06,1.06,0,0,0,441.89,255.06Z" style="fill:#455a64"></path><path d="M447.4,279.19s2.36-3.44,3.33-3.61,4.9-.58,5.32-.27,2.26,1.78,1.59,3.37a44,44,0,0,1-2.09,4,5.62,5.62,0,0,0,.57,1.93c.36.39,2.66,1.89,2.53,3.25a6.66,6.66,0,0,1-1.08,2.69s1.68,1.94,1.38,3.11a7.11,7.11,0,0,1-1.31,2.36,12.11,12.11,0,0,1-.41,4c-.54,1.17-6.14,4.14-6.14,4.14l-6.82-1.26s-1.91-1.73-.47-2.61,7.41-.77,7.41-.77l2.07-1.87s-10.35,1.33-11.25,1-2.55-.95-2-2.26,1.29-2.36,5.07-2.49,8.73-2.46,8.73-2.46l0-.68s-8.81,2.07-10.1,2-2.8-.74-2.52-1.9.2-2.58,2.21-2.88a71.55,71.55,0,0,0,8.15-2.66l.07-3.83a3.84,3.84,0,0,1-2.81.47C447.58,281.48,447,279.8,447.4,279.19Z" style="fill:#c17560"></path></g><g id="freepik--character-1--inject-2"><path d="M209.3,331.13l9.18,21.46,29.26-9.95,2.15,13.95S220.24,375.4,215,375.2s-14.54-13-14.54-13Z" style="fill:#ffbe9d"></path><path d="M242.68,346.21s10.74-8.65,11.64-9.12,4.93-1.95,6.62-1.92,12,1.43,12.62,2.77,1.81,3.45.91,4.59a18.7,18.7,0,0,1-1.34,1.58s1.25,2.27.38,3.95a7.39,7.39,0,0,1-2.21,2.54,6,6,0,0,1-3.13,1.95s.63,2.09-1.09,2.79-7-.57-7-.57a26.47,26.47,0,0,0-4.75,1.56c-2.85,1.2-8.06.59-8.06.59Z" style="fill:#ffbe9d"></path><path d="M273.87,322.85c.39-9.62,0-12.21,0-12.21s-9.72-5.89-19.48-.17c0,0-3.76,20.21,8.54,22.84l.34,21.23s-6.65,2.62-6.38,3.73l15,.06c-.4-1.67-6.37-3.67-6.37-3.67l.14-21.63S273.49,332.48,273.87,322.85Z" style="fill:#fff"></path><path d="M273.87,322.85a.78.78,0,0,1,0,.25c0,.17,0,.41-.05.72a7.32,7.32,0,0,1-.14,1.17,11.23,11.23,0,0,1-.38,1.59,9.14,9.14,0,0,1-2.25,3.89,9.26,9.26,0,0,1-5.39,2.68l.11-.12c0,5.77,0,13.14-.09,21.63l-.12-.17a33.62,33.62,0,0,1,3.42,1.39,13.19,13.19,0,0,1,1.68.93,3.2,3.2,0,0,1,1.4,1.48l.08.23h-.26l-15,0h-.16l0-.15a.69.69,0,0,1,.18-.58,2.39,2.39,0,0,1,.35-.36,5.91,5.91,0,0,1,.77-.54c.53-.34,1.09-.63,1.66-.92,1.14-.56,2.32-1.08,3.53-1.56l-.12.19c0-2.34-.08-4.82-.12-7.33-.08-4.76-.15-9.42-.22-13.9l.15.19a10.8,10.8,0,0,1-3.42-1.41,9.91,9.91,0,0,1-2.63-2.49,16.31,16.31,0,0,1-2.62-6.43,30.87,30.87,0,0,1-.53-6.57,40.81,40.81,0,0,1,.54-6.17l0-.08.06,0a20.71,20.71,0,0,1,5.49-2.11,20.3,20.3,0,0,1,5.39-.31,20.88,20.88,0,0,1,4.78,1,20.53,20.53,0,0,1,4,1.69l0,0v.05a48.22,48.22,0,0,1,.17,5.19c0,1.51-.05,2.79-.08,3.84s-.08,1.82-.11,2.38c0,.26,0,.46,0,.61a.58.58,0,0,1,0,.21V322c0-.56,0-1.36.05-2.39s0-2.33,0-3.83a51.31,51.31,0,0,0-.22-5.16l0,.08a20.17,20.17,0,0,0-3.93-1.64,21.47,21.47,0,0,0-4.72-.91,18,18,0,0,0-10.69,2.43l.08-.11a41.36,41.36,0,0,0-.52,6.11,31.41,31.41,0,0,0,.54,6.5,15.89,15.89,0,0,0,2.57,6.27,9.69,9.69,0,0,0,5.83,3.74l.15,0v.16c.08,4.49.15,9.14.23,13.9,0,2.51.08,5,.12,7.33v.14l-.13.05c-1.2.48-2.38,1-3.5,1.55a18,18,0,0,0-1.63.89,6.73,6.73,0,0,0-.73.51c-.21.17-.43.45-.4.54l-.19-.15,15,.08-.18.23a3,3,0,0,0-1.24-1.27,13.14,13.14,0,0,0-1.64-.91,32.76,32.76,0,0,0-3.37-1.38l-.11,0v-.12c.07-8.49.14-15.86.19-21.63v-.11h.11a9,9,0,0,0,7.54-6.37,10,10,0,0,0,.4-1.56,7.83,7.83,0,0,0,.17-1.17c0-.3.06-.54.08-.72A2.26,2.26,0,0,1,273.87,322.85Z" style="fill:#263238"></path><path d="M273.89,310.42a4.41,4.41,0,0,1-.72.33c-.24.1-.53.22-.87.33s-.74.27-1.18.38a23.45,23.45,0,0,1-3.15.7,28,28,0,0,1-3.93.31,26.63,26.63,0,0,1-3.94-.3,23.45,23.45,0,0,1-3.15-.7c-.44-.11-.83-.26-1.18-.38s-.63-.23-.87-.33a3.55,3.55,0,0,1-.72-.33,3.76,3.76,0,0,1,.76.23l.88.28c.35.1.74.23,1.19.33a28,28,0,0,0,3.13.64,29.37,29.37,0,0,0,3.9.27,31.05,31.05,0,0,0,3.89-.28,27.57,27.57,0,0,0,3.13-.64c.45-.1.84-.23,1.19-.33s.64-.2.88-.29A4.06,4.06,0,0,1,273.89,310.42Z" style="fill:#263238"></path><path d="M255.05,319.17a24,24,0,0,0,2,7.28,8.54,8.54,0,0,0,5.67,4.65,7.73,7.73,0,0,0,7.54-3.56,13.46,13.46,0,0,0,2.23-8.79.62.62,0,0,0-.51-.61,3.93,3.93,0,0,0-1.85-.25,7.49,7.49,0,0,0-1.45.71c-2.13,1.09-4.7.64-7.05.18s-4.16-1.21-6.62.39" style="fill:#5046E5"></path><path d="M250,340.37l19.75-3.18s2.11,1.29.16,3.53-8.06,3.55-8.06,3.55,1.07,5-5.8,9.13S244.23,350,244.23,350Z" style="fill:#ffbe9d"></path><path d="M252.17,354.66a6,6,0,0,1,1.12-.29l.6-.14.7-.25a7.84,7.84,0,0,0,.8-.29l.87-.43a9.84,9.84,0,0,0,3.51-3.23,11.8,11.8,0,0,0,1.84-5.76v-.19l.17-.05c1.17-.35,2.4-.76,3.64-1.24a18.69,18.69,0,0,0,3.66-1.77,3.89,3.89,0,0,0,.88-.77,1.53,1.53,0,0,0,.25-.45,3.5,3.5,0,0,0,.13-.56,1.75,1.75,0,0,0-.71-1.82l.16,0-13.19,2-3.88.54a8.6,8.6,0,0,1-1.42.14,8.81,8.81,0,0,1,1.39-.31l3.86-.7,13.15-2.21.1,0,.06,0c1.69,1.05,1.12,3.73-.48,4.49a20,20,0,0,1-3.77,1.82c-1.26.49-2.5.89-3.7,1.23l.18-.23a12,12,0,0,1-2,6,9.86,9.86,0,0,1-3.71,3.27l-.91.41c-.28.12-.57.18-.83.27l-.72.21-.62.11A7.54,7.54,0,0,1,252.17,354.66Z" style="fill:#eb996e"></path><path d="M273.13,344.11a7.4,7.4,0,0,1-1.46,1.07c-.46.31-1,.68-1.65,1.07a7.39,7.39,0,0,1-2.24,1,2,2,0,0,1-1.38-.23,2.07,2.07,0,0,1-.81-1,2.54,2.54,0,0,1,.14-2.07c.57-1,1.23-1.38,1.26-1.34a13.12,13.12,0,0,0-.92,1.5,2.2,2.2,0,0,0,0,1.73,1.43,1.43,0,0,0,1.65.91,8.24,8.24,0,0,0,2.09-.95l1.7-1A5.34,5.34,0,0,1,273.13,344.11Z" style="fill:#eb996e"></path><path d="M268.27,352.17c.05,0-.35.37-1.06.19a1.85,1.85,0,0,1-1-.69,2.27,2.27,0,0,1-.42-1.44,3.65,3.65,0,0,1,1.08-2.33c.45-.47.78-.7.83-.65s-.19.37-.54.88a4,4,0,0,0-.85,2.12,1.75,1.75,0,0,0,1,1.76C267.86,352.25,268.24,352.09,268.27,352.17Z" style="fill:#eb996e"></path><path d="M154.89,432.87s-39.67,13.06-41.12,13.65c-2.19.89-1.85,8,1.6,7.7,1.63-.14,32.06-.44,35.42-.81s13.52-4.08,13.52-4.08Z" style="fill:#455a64"></path><path d="M140.19,447.66a6.72,6.72,0,0,0-1.29-4.22c-1.35-2.13-3.24-3.08-3.29-2.93s1.51,1.27,2.76,3.27S140,447.7,140.19,447.66Z" style="fill:#263238"></path><path d="M144,445.74c.16,0,0-1.89-1.17-3.87a7,7,0,0,0-2.71-3c-.12.14,1.12,1.42,2.17,3.31S143.77,445.78,144,445.74Z" style="fill:#263238"></path><path d="M147.51,444.6c.15,0,.5-1.93-.48-4.11s-2.67-3.24-2.74-3.1,1.29,1.34,2.17,3.35S147.32,444.6,147.51,444.6Z" style="fill:#263238"></path><path d="M146.63,439.87c.1,0-.12-1.06-.09-2.73a15.14,15.14,0,0,1,.36-2.91,14.39,14.39,0,0,1,.48-1.65,1.59,1.59,0,0,1,.37-.66.36.36,0,0,1,.49,0c.35.25.37,1,.41,1.53a8.55,8.55,0,0,1-.09,1.69,12.14,12.14,0,0,1-.84,2.79c-.67,1.54-1.24,2.42-1.16,2.48a7.13,7.13,0,0,0,1.55-2.3,10.89,10.89,0,0,0,1-2.87,8.25,8.25,0,0,0,.14-1.82,8.33,8.33,0,0,0-.09-1,1.65,1.65,0,0,0-.55-1,1,1,0,0,0-1.26,0,1.94,1.94,0,0,0-.55.93,11.87,11.87,0,0,0-.47,1.74,12.75,12.75,0,0,0-.23,3A6.65,6.65,0,0,0,146.63,439.87Z" style="fill:#263238"></path><path d="M146.66,439.49c0,.1.92-.09,2.37-.06a12.22,12.22,0,0,1,2.5.32,5.19,5.19,0,0,1,1.36.46.94.94,0,0,1,.6,1,1.25,1.25,0,0,1-.86.92,2.84,2.84,0,0,1-1.36.08,6.44,6.44,0,0,1-2.31-.87,16.09,16.09,0,0,0-2-1.24,6.37,6.37,0,0,0,1.8,1.61,6.17,6.17,0,0,0,2.45,1.06,3.34,3.34,0,0,0,1.65-.07,1.84,1.84,0,0,0,1.27-1.38,1.57,1.57,0,0,0-.91-1.64,5.83,5.83,0,0,0-1.54-.49A10.93,10.93,0,0,0,149,439,5.24,5.24,0,0,0,146.66,439.49Z" style="fill:#263238"></path><path d="M120,454.13c0,.07.66-.19,1.17-1.08a5.14,5.14,0,0,0,.35-3.84,13.08,13.08,0,0,0-.68-2,6.35,6.35,0,0,0-.81-1.54,2.09,2.09,0,0,0-1-.74c-.28-.09-.44-.06-.45,0s.59.21,1,1a7.9,7.9,0,0,1,.64,1.49c.21.6.44,1.24.61,1.93a5.36,5.36,0,0,1-.14,3.49C120.43,453.69,119.94,454.05,120,454.13Z" style="fill:#263238"></path><path d="M134.54,448.32c.15.06.56-1.67-.32-3.55s-2.45-2.69-2.51-2.54,1.17,1.09,1.94,2.8S134.35,448.31,134.54,448.32Z" style="fill:#263238"></path><path d="M160.35,448.81a12.77,12.77,0,0,0-1.75.62,43.24,43.24,0,0,1-4.85,1.44,55.83,55.83,0,0,1-7.39,1.17c-2.81.27-5.92.4-9.19.47-6.54.12-12.46.25-16.75.38l-5.07.19a11.68,11.68,0,0,0-1.86.15,11.4,11.4,0,0,0,1.86.09h5.08c4.29,0,10.21-.08,16.76-.2,3.27-.07,6.39-.22,9.22-.52a52,52,0,0,0,7.45-1.32,34.89,34.89,0,0,0,4.83-1.63A9.26,9.26,0,0,0,160.35,448.81Z" style="fill:#263238"></path><path d="M161.48,449.6a9.6,9.6,0,0,0-2.65-1.52,12.25,12.25,0,0,0-7.33-1,8.79,8.79,0,0,0-3.73,1.8,14.85,14.85,0,0,0-2.34,2.4,11.7,11.7,0,0,0-1.69,2.55,20.58,20.58,0,0,0,2-2.27c1.23-1.35,3.11-3.31,5.87-3.87a12.87,12.87,0,0,1,7,.83C160.4,449.15,161.44,449.69,161.48,449.6Z" style="fill:#263238"></path><path d="M89.46,448.66a24.57,24.57,0,0,1-14.79-14.9,17,17,0,0,1-1-5.84c.19-6.63,4.28-16,14.59-21.72a23.15,23.15,0,0,1,7.26-2.53c4.74-.81,13.84-2.38,15.67-2.84,0,0,4-5.63,3.75-6.88s.23-1.88,0-4.59,4.37-10.42,4.37-10.42H182s4.38,6.88,3.75,9.17l3.13,7.92s67.22,8.36,72.33,23.56c3.58,10.63-6,19.48-11.27,23.36a13.85,13.85,0,0,1-6.22,2.57l-25.57,3.81-6.78-.35s4.19-14.18.85-19.39-13.13-3.54-13.13-3.54S158.46,441.89,153.87,444s-6.9,2.87-6.9,2.87-43.33,4.43-49.17,4A33.47,33.47,0,0,1,89.46,448.66Z" style="fill:#263238"></path><path d="M159.58,441.88l4.56,7.18,47.24-.08s8-9.86,5.8-15.18-12.53-10.45-12.53-10.45l-19.19,6Z" style="fill:#ffbe9d"></path><path d="M157.43,416.13l.8,26.39,40.87-16.47v-2.2a8.7,8.7,0,0,0-4.59-7.64h0a8.7,8.7,0,0,0-4.33-1Z" style="fill:#ffbe9d"></path><path d="M124,412.26a4.5,4.5,0,0,1-1-.11c-.65-.1-1.6-.21-2.76-.33a50.6,50.6,0,0,0-9.17-.07,51.18,51.18,0,0,0-9,1.6c-1.13.31-2,.58-2.67.79a6.11,6.11,0,0,1-1,.28,4.54,4.54,0,0,1,.94-.41c.61-.25,1.51-.57,2.64-.91a44.83,44.83,0,0,1,18.28-1.53c1.17.14,2.12.3,2.76.44A6.62,6.62,0,0,1,124,412.26Z" style="fill:#455a64"></path><path d="M148.47,413.82a1.65,1.65,0,0,1-.4-.07l-1.13-.26c-1-.23-2.39-.57-4.15-.95a53.43,53.43,0,0,0-6.21-1,41.81,41.81,0,0,0-7.69,0A24.69,24.69,0,0,0,116,416.33a17.93,17.93,0,0,0-3,3c-.62.79-.93,1.25-1,1.23s0-.13.19-.35.34-.57.65-1a16.85,16.85,0,0,1,3-3.08,24.26,24.26,0,0,1,13-5,39.82,39.82,0,0,1,7.75.07,50.08,50.08,0,0,1,6.24,1.09c1.75.41,3.15.8,4.12,1.07l1.11.32A2,2,0,0,1,148.47,413.82Z" style="fill:#455a64"></path><path d="M161.1,422.83c.05-2.7-.11-4.52-1.32-6.36s-3.35-4.35-5.51-5.18c-3-1.16-6.26-.25-9.22,1.07l2.78,1.34c2.69,0,4,2,4.89,4.56a16.83,16.83,0,0,1,.34,8A71.62,71.62,0,0,1,147,446.84a26.32,26.32,0,0,0,12.81-.88C162.22,439.89,161,429.37,161.1,422.83Z" style="fill:#263238"></path><path d="M123.65,412.17a4.39,4.39,0,0,1-.87-.41c-.27-.14-.61-.31-1-.49s-.84-.4-1.36-.59a35.79,35.79,0,0,0-3.62-1.29c-1.39-.4-2.94-.78-4.58-1.08a59.89,59.89,0,0,0-8.52-.87c-1.1,0-2-.06-2.61-.06a4.48,4.48,0,0,1-1-.05,4.94,4.94,0,0,1,1-.09c.62,0,1.51-.07,2.61-.06a51.35,51.35,0,0,1,8.58.77,44.77,44.77,0,0,1,4.62,1.12,32,32,0,0,1,3.63,1.37c.5.22,1,.45,1.34.65s.72.39,1,.55A4.91,4.91,0,0,1,123.65,412.17Z" style="fill:#455a64"></path><path d="M175.36,399.67a1.65,1.65,0,0,1-.34.17l-1,.4c-.43.18-1,.39-1.59.59s-1.34.47-2.15.69-1.68.48-2.64.69-2,.43-3.07.63a56.41,56.41,0,0,1-7.15.73,57,57,0,0,1-7.19-.25c-1.1-.14-2.14-.25-3.11-.43s-1.87-.34-2.68-.52-1.55-.37-2.19-.54-1.19-.33-1.63-.48l-1-.34a1.8,1.8,0,0,1-.35-.14s.13,0,.37.07l1,.27c.45.13,1,.28,1.64.42s1.37.35,2.19.49,1.71.34,2.68.47,2,.27,3.09.39a60.56,60.56,0,0,0,7.14.23,59.66,59.66,0,0,0,7.11-.7c1.08-.19,2.11-.36,3.06-.59s1.84-.43,2.64-.65,1.52-.44,2.16-.63,1.17-.37,1.61-.53l1-.34A1.41,1.41,0,0,1,175.36,399.67Z" style="fill:#455a64"></path><path d="M159.73,380.19a1.18,1.18,0,0,1,0,.34c0,.26,0,.58,0,1,0,.9,0,2.11.06,3.57,0,3.07.08,7.21.13,11.78,0,2.3,0,4.5-.1,6.5a28.55,28.55,0,0,1-.82,5.25A22.32,22.32,0,0,1,157.9,412q-.26.51-.42.87c-.11.2-.16.3-.18.29a1.69,1.69,0,0,1,.11-.32l.36-.9a27.13,27.13,0,0,0,1.06-3.39,31.63,31.63,0,0,0,.74-5.21c.12-2,.11-4.17.07-6.47-.08-4.61,0-8.77,0-11.79,0-1.46,0-2.67,0-3.57,0-.38,0-.71,0-1A1.91,1.91,0,0,1,159.73,380.19Z" style="fill:#455a64"></path><path d="M163.29,384.48c0,.06-.44.13-.7.71a1.18,1.18,0,0,0,0,1,1,1,0,0,0,1.05.44,1,1,0,0,0,.86-.75,1.18,1.18,0,0,0-.31-.94,1.62,1.62,0,0,0-.89-.45s.1-.08.3-.07a1.19,1.19,0,0,1,.77.34,1.39,1.39,0,0,1,.46,1.18,1.39,1.39,0,0,1-2.53.41,1.37,1.37,0,0,1,.06-1.26,1.25,1.25,0,0,1,.62-.57C163.18,384.44,163.29,384.46,163.29,384.48Z" style="fill:#455a64"></path><path d="M184.43,386.72s-.14.16-.45.36a5.84,5.84,0,0,1-1.43.67,7.12,7.12,0,0,1-8.79-3.77,6.16,6.16,0,0,1-.49-1.49,1.82,1.82,0,0,1-.05-.58,17,17,0,0,0,.77,2,7.2,7.2,0,0,0,8.49,3.64A19.15,19.15,0,0,0,184.43,386.72Z" style="fill:#455a64"></path><path d="M114.92,390.19c0-.06,1,.07,2.52.15a32.49,32.49,0,0,0,6.07-.26c1.17-.16,2.28-.38,3.28-.62a7.4,7.4,0,0,0,2.51-.94,3,3,0,0,0,1.13-1.35c.15-.4.15-.65.18-.65a1.16,1.16,0,0,1-.05.69,2.87,2.87,0,0,1-1.11,1.52,7.28,7.28,0,0,1-2.57,1,26.71,26.71,0,0,1-3.32.66,27.06,27.06,0,0,1-6.13.15c-.79-.07-1.42-.16-1.85-.24A2.77,2.77,0,0,1,114.92,390.19Z" style="fill:#455a64"></path><path d="M147.86,409.44a7.57,7.57,0,0,1-.73-.91,20,20,0,0,0-2.18-2.3,24.78,24.78,0,0,0-9.1-5,54,54,0,0,0-10.3-2l-3.18-.33a8.17,8.17,0,0,1-1.16-.16,6.24,6.24,0,0,1,1.18,0c.75,0,1.84.1,3.18.21A49.21,49.21,0,0,1,136,400.88a24,24,0,0,1,9.16,5.16,15.19,15.19,0,0,1,2.12,2.41c.23.3.37.56.48.72A1.2,1.2,0,0,1,147.86,409.44Z" style="fill:#455a64"></path><path d="M193.36,398.29a8.57,8.57,0,0,1-1.19.16c-.39,0-.86.09-1.4.18s-1.16.16-1.83.31a41,41,0,0,0-4.69,1.17,45.5,45.5,0,0,0-5.5,2.19,44.16,44.16,0,0,0-5.11,3,40.13,40.13,0,0,0-3.82,3c-.53.44-1,.88-1.37,1.25s-.74.71-1,1a10,10,0,0,1-.86.84,7,7,0,0,1,.76-.94c.25-.29.57-.64,1-1s.82-.85,1.35-1.3a35.69,35.69,0,0,1,3.8-3.05,41.76,41.76,0,0,1,5.14-3,40.25,40.25,0,0,1,5.56-2.18,35.35,35.35,0,0,1,4.74-1.11c.69-.13,1.31-.19,1.86-.26s1-.1,1.41-.12A6.47,6.47,0,0,1,193.36,398.29Z" style="fill:#455a64"></path><path d="M209.89,401.87a1.26,1.26,0,0,1-.34.05l-1,.06c-.42,0-.94,0-1.54.11s-1.28.09-2,.19c-1.5.16-3.28.43-5.25.81a64.14,64.14,0,0,0-6.29,1.61,63.5,63.5,0,0,0-6.07,2.3c-1.83.81-3.44,1.61-4.76,2.35-.67.35-1.25.71-1.77,1s-1,.57-1.32.8l-.84.51a1.08,1.08,0,0,1-.3.15s.08-.08.26-.22l.8-.56c.35-.25.78-.54,1.29-.85s1.09-.7,1.75-1.06c1.31-.77,2.92-1.6,4.75-2.44a58.2,58.2,0,0,1,6.1-2.33,59.5,59.5,0,0,1,6.34-1.6A51.24,51.24,0,0,1,205,402c.75-.09,1.44-.11,2-.14s1.12-.05,1.55-.05h1A1.23,1.23,0,0,1,209.89,401.87Z" style="fill:#455a64"></path><path d="M241.29,416.52l-.44.1c-.3.06-.73.14-1.29.22a43.76,43.76,0,0,1-4.78.38c-2,.06-4.43,0-7.1-.08s-5.6-.21-8.68-.09a36.1,36.1,0,0,0-8.53,1.27,23,23,0,0,0-6.38,2.93,17.37,17.37,0,0,0-3.56,3.14c-.74.85-1.07,1.38-1.1,1.36a2.14,2.14,0,0,1,.23-.39,9.62,9.62,0,0,1,.76-1.06,16.66,16.66,0,0,1,3.52-3.26,22.84,22.84,0,0,1,6.44-3,35.65,35.65,0,0,1,8.61-1.31c3.09-.12,6,0,8.7.11s5.07.19,7.09.16,3.64-.14,4.76-.26l1.29-.15A1.78,1.78,0,0,1,241.29,416.52Z" style="fill:#455a64"></path><path d="M199.1,426.05a2.05,2.05,0,0,1-.37.19l-1.11.47-4.1,1.66L180,433.77c-5.28,2.14-10,4.15-13.44,5.67l-4,1.8-1.1.49a1.7,1.7,0,0,1-.4.15,1.93,1.93,0,0,1,.37-.22l1.07-.54c.93-.48,2.29-1.13,4-1.92,3.38-1.57,8.12-3.63,13.4-5.76s10.1-4,13.59-5.31l4.14-1.56,1.13-.4A2.08,2.08,0,0,1,199.1,426.05Z" style="fill:#eb996e"></path><path d="M190.47,415.15l8.11,0a7.31,7.31,0,0,1,6.11,3.33l1,1.59a22,22,0,0,0-6.62,5.95l-2.65.24Z" style="fill:#ffbe9d"></path><path d="M197.41,426.74c4.13-.62,8.74-.93,12.18,1.44a10.33,10.33,0,0,1,4.34,7.87,38.79,38.79,0,0,1-.74,9.72c-.15,1-.26,2.79.59,3.34a3.36,3.36,0,0,0,2.09.11c1.77-.26,4.07-.13,5-1.65.6-1,.17-3.18.15-4.31,0-2.59-.14-5.17-.31-7.75-.21-3.08-.57-6.28-2.23-8.87a11.63,11.63,0,0,0-4.5-4c-5.5-2.82-15.64-.43-16.57,4.09" style="fill:#263238"></path><path d="M246.8,417.27s-.15-.23-.47-.57a4.16,4.16,0,0,0-1.66-1,11.38,11.38,0,0,0-2.91-.53c-1.13-.09-2.37-.16-3.67-.17a49.67,49.67,0,0,0-6.64.4c-1.7.2-2.74.4-2.75.34a3.73,3.73,0,0,1,.72-.21c.46-.11,1.14-.25,2-.39a40.28,40.28,0,0,1,6.69-.5c1.31,0,2.56.09,3.69.2a10.57,10.57,0,0,1,3,.62,4,4,0,0,1,1.68,1.18,2.18,2.18,0,0,1,.3.47C246.79,417.2,246.81,417.26,246.8,417.27Z" style="fill:#455a64"></path><path d="M205.63,420a12.33,12.33,0,0,0-.64-1.64,7.14,7.14,0,0,0-3-2.83,16,16,0,0,0-4.06-1.28,10.16,10.16,0,0,1-1.74-.39,7.45,7.45,0,0,1,1.79.14,13.44,13.44,0,0,1,4.18,1.21,6.91,6.91,0,0,1,3.1,3,4.55,4.55,0,0,1,.4,1.27A1.15,1.15,0,0,1,205.63,420Z" style="fill:#455a64"></path><path d="M148.47,413.82s.08.09.2.29l.53.87a11,11,0,0,1,.76,1.41,18.3,18.3,0,0,1,.88,1.95l.45,1.16c.15.4.26.84.4,1.28.29.89.48,1.86.71,2.89a30.57,30.57,0,0,1-.49,13.5A27.17,27.17,0,0,1,151,440c-.3.88-.66,1.67-1,2.39s-.68,1.34-1,1.9a13.49,13.49,0,0,1-.83,1.38l-.56.85c-.13.19-.2.29-.21.28s0-.12.15-.32l.5-.88a15.27,15.27,0,0,0,.77-1.41c.27-.56.63-1.17.91-1.91a25.16,25.16,0,0,0,.94-2.38c.33-.86.57-1.82.85-2.82a34.34,34.34,0,0,0,.95-6.66,33.21,33.21,0,0,0-.47-6.7,29,29,0,0,0-.67-2.87c-.13-.44-.23-.87-.38-1.27s-.29-.79-.42-1.16a18.84,18.84,0,0,0-.82-1.95,15.13,15.13,0,0,0-.7-1.44l-.47-.9A1,1,0,0,1,148.47,413.82Z" style="fill:#455a64"></path><path d="M161.1,422.83s0-.38,0-1.05a10.34,10.34,0,0,0-.43-2.79,11.25,11.25,0,0,0-1.85-3.73,10.36,10.36,0,0,0-3.94-3.17,11.15,11.15,0,0,0-5.56-.91,11,11,0,0,0-4.19,1.28v-.2l2,1a5.5,5.5,0,0,1,.7.41,3.85,3.85,0,0,1-.76-.29l-2.07-1-.2-.09.19-.11a10.72,10.72,0,0,1,4.28-1.4,11.19,11.19,0,0,1,5.74.9,10.56,10.56,0,0,1,4.06,3.3,11.3,11.3,0,0,1,1.83,3.86,9.64,9.64,0,0,1,.32,2.86,6.19,6.19,0,0,1-.06.78A1,1,0,0,1,161.1,422.83Z" style="fill:#455a64"></path><path d="M205.34,421.81s.13,0,.37,0h1.06a25.86,25.86,0,0,1,3.87.37,12.57,12.57,0,0,1,5.34,2.18,13.65,13.65,0,0,1,4.34,5.56,19.65,19.65,0,0,1,1.6,6.89,35,35,0,0,1-.18,5.77c-.17,1.63-.38,2.94-.52,3.84-.08.42-.14.76-.19,1a1.52,1.52,0,0,1-.08.36s0-.13,0-.37.07-.63.12-1.05c.1-.91.27-2.22.41-3.85a37.63,37.63,0,0,0,.1-5.72,19.77,19.77,0,0,0-1.6-6.76,13.55,13.55,0,0,0-4.21-5.44,12.62,12.62,0,0,0-5.19-2.2,31.76,31.76,0,0,0-3.83-.48l-1-.07A1.61,1.61,0,0,1,205.34,421.81Z" style="fill:#455a64"></path><path d="M195.47,294.81a23.42,23.42,0,0,0-9.93-4.47c-6.35-1.34-32.19-.51-32.19-.51l-15.1,1.95a25.48,25.48,0,0,0-21.46,18.32c-.11.38-.2.78-.3,1.18-3.33,14.45,1.16,58.42,1.16,58.42a22.6,22.6,0,0,1,1.41,6.12,1.16,1.16,0,0,0,0,.18,11.19,11.19,0,0,0,.17,2.94h2.34a62.82,62.82,0,0,0,9.56,5.53s.64-2.3,1.92-5.53H182s5,2.73,7.32-4.62,9.29-10.18,10.86-23.13S195.47,294.81,195.47,294.81Z" style="fill:#455a64"></path><path d="M132.19,378.87a5.77,5.77,0,0,1,.24-1c.09-.32.2-.71.37-1.15s.32-1,.56-1.49a30.74,30.74,0,0,1,1.83-3.72,34,34,0,0,1,2.89-4.19,33.57,33.57,0,0,1,3.51-3.67,31,31,0,0,1,3.28-2.55c.48-.35.95-.61,1.35-.85s.75-.44,1.05-.59a5.15,5.15,0,0,1,.92-.44,5.1,5.1,0,0,1-.85.56c-.29.17-.63.37-1,.64s-.84.53-1.31.89a34.85,34.85,0,0,0-3.2,2.58,36.14,36.14,0,0,0-3.46,3.66,37.91,37.91,0,0,0-2.88,4.12,33.9,33.9,0,0,0-1.88,3.66c-.26.53-.43,1-.61,1.46s-.32.81-.42,1.12A5.55,5.55,0,0,1,132.19,378.87Z" style="fill:#263238"></path><path d="M195.47,294.81a42.79,42.79,0,0,1,5.42,11.49c2.05,6.83,19.47,42.36,19.47,42.36l-22.27,20.39-6.11-5Z" style="fill:#455a64"></path><path d="M141.53,356.53a1.94,1.94,0,0,1,1-.59,3.65,3.65,0,0,1,4.63,2.49,2,2,0,0,1,.07,1.18c-.06,0-.07-.45-.32-1.1a3.66,3.66,0,0,0-4.32-2.32C141.94,356.34,141.56,356.58,141.53,356.53Z" style="fill:#263238"></path><path d="M141,348.66a2.84,2.84,0,0,1,1.19.48,6.31,6.31,0,0,1,3,5.17,2.55,2.55,0,0,1-.17,1.26c-.06,0,0-.48-.08-1.24a7.24,7.24,0,0,0-.92-2.8,7.15,7.15,0,0,0-2-2.18A12.47,12.47,0,0,1,141,348.66Z" style="fill:#263238"></path><path d="M139.25,304.92a2.48,2.48,0,0,1,.23.4l.58,1.17a14.84,14.84,0,0,1,.77,1.93c.14.38.28.79.44,1.22s.24.91.37,1.4a46.48,46.48,0,0,1,1.2,7c.26,2.68.35,5.64.36,8.74,0,6.2-.36,11.81-.43,15.86,0,1,0,1.94,0,2.74s0,1.5,0,2.07,0,1,0,1.31a1.59,1.59,0,0,1,0,.45,2.23,2.23,0,0,1-.05-.45c0-.34-.05-.77-.09-1.31s0-1.26-.07-2.07,0-1.72,0-2.74c0-4.06.29-9.67.32-15.86,0-3.1-.09-6-.33-8.71a46.74,46.74,0,0,0-1.11-7l-.34-1.41c-.15-.43-.28-.83-.41-1.22a16.23,16.23,0,0,0-.71-1.93c-.21-.49-.38-.89-.52-1.2A2.52,2.52,0,0,1,139.25,304.92Z" style="fill:#263238"></path><path d="M140.77,358.2a4.69,4.69,0,0,1-.78.47c-.51.27-1.23.69-2.11,1.24a33.6,33.6,0,0,0-3,2.09,37.44,37.44,0,0,0-3.31,2.95,36.89,36.89,0,0,0-2.9,3.37c-.81,1.09-1.5,2.11-2,3s-.94,1.62-1.2,2.14a3.72,3.72,0,0,1-.46.78,5.18,5.18,0,0,1,.33-.85,22.61,22.61,0,0,1,1.11-2.2,29.13,29.13,0,0,1,2-3.07,34.68,34.68,0,0,1,2.91-3.42,35.29,35.29,0,0,1,3.36-3,30.49,30.49,0,0,1,3-2c.9-.52,1.65-.91,2.18-1.15A4.6,4.6,0,0,1,140.77,358.2Z" style="fill:#263238"></path><path d="M191.64,370.29s0-.06.06-.15l.23-.43c.21-.38.52-.94.93-1.64.8-1.42,2-3.44,3.57-5.91a16.91,16.91,0,0,0,2-4.28,46.07,46.07,0,0,0,1.25-5.31,54.47,54.47,0,0,0,.7-6c.1-2.08.12-4.26.09-6.48a114.11,114.11,0,0,0-2.64-22.56c-.63-2.84-1.25-5.12-1.68-6.69l-.52-1.8q-.08-.29-.12-.48a1.45,1.45,0,0,1,0-.16s0,.05.07.15l.16.46.58,1.79c.47,1.56,1.13,3.83,1.8,6.67a108.48,108.48,0,0,1,2.75,22.62c0,2.23,0,4.39-.1,6.5a55.13,55.13,0,0,1-.72,6,44.42,44.42,0,0,1-1.3,5.34,16.79,16.79,0,0,1-2,4.32c-1.57,2.46-2.83,4.46-3.67,5.85l-1,1.6-.26.41Z" style="fill:#263238"></path><path d="M149.8,382.26c14.47-8.2,37.58-26.59,37.58-26.59l-6.3-12.75L150,358.46a32.11,32.11,0,0,0-15.33,16.45l-3.69,8.9h0A22.56,22.56,0,0,0,149.8,382.26Z" style="fill:#ffbe9d"></path><path d="M181.08,342.94l11.66-10.73,13.31-5.6a3.07,3.07,0,0,1-.77,3.59c-1.76,1.83-5.2,3.92-6.48,4.9s-2.33,1.84-1.64,3.78c.32.9,1.69,1.77,4.89,2.12s10.4,0,10.85,1.94-1.83,2.4-1.83,2.4l-9.48.57s-1.94-.57-1.48.91a8,8,0,0,0,1.48,2.63s12.11,5.82,12.91,7.88.46,3,0,2.85-11.1-4.33-11.1-4.33,12.7,7.42,12.47,8.56-.68,1.6-2.05,1.49-10.64-5.41-10.64-5.41,7.21,5.41,7.32,6.2-.8,1.26-1.71.92-10.31-5.83-10.31-5.83l-13.6-6.62Z" style="fill:#ffbe9d"></path><path d="M186.85,356s.21.08.6.27l1.75.84,6.65,3.27,2.27,1.13c.81.39,1.59.89,2.44,1.36l5.47,3.11,1.5.83a8.75,8.75,0,0,0,1.55.74c.51.14,1.17-.07,1.24-.57a.38.38,0,0,0-.06-.31l-.28-.33c-.21-.22-.44-.44-.67-.65-1.89-1.67-4-3.3-6.25-5l.23-.36q2.86,1.63,6,3.29c1.05.55,2.12,1.1,3.23,1.6.27.11.55.24.83.34a2.14,2.14,0,0,0,.83.15,1.18,1.18,0,0,0,1.29-.73c.09-.24.23-.63.11-.68a4.07,4.07,0,0,0-.62-.63c-.47-.41-1-.79-1.51-1.16-1-.75-2.14-1.47-3.25-2.18-2.23-1.43-4.55-2.84-6.93-4.23l.22-.46,10.29,4,.66.25.14.05a.41.41,0,0,0,.09-.16,2.84,2.84,0,0,0-.07-1.28c0-.22-.12-.44-.19-.66a2,2,0,0,0-.28-.6,4.68,4.68,0,0,0-1-1,40.27,40.27,0,0,0-4.93-3.1c-2.23-1.24-4.49-2.4-6.74-3.5l0,0,0,0a8.13,8.13,0,0,1-1.42-2.38,2.91,2.91,0,0,1-.19-.72.81.81,0,0,1,.37-.81,2.09,2.09,0,0,1,1.51,0h-.09l9.48-.56h0a2,2,0,0,0,1.65-1.4,1.24,1.24,0,0,0-.19-1,2.5,2.5,0,0,0-1-.55,21.25,21.25,0,0,0-4.9-.65c-1.64-.1-3.26-.1-4.87-.29a13.47,13.47,0,0,1-2.37-.49,4.36,4.36,0,0,1-2.11-1.22,2.46,2.46,0,0,1-.47-1.16,2.6,2.6,0,0,1,0-1.24,3.79,3.79,0,0,1,1.44-1.85c1.19-.94,2.44-1.7,3.59-2.53a24,24,0,0,0,3.23-2.6,3.56,3.56,0,0,0,1-1.63,2.71,2.71,0,0,0-.17-1.78l.25.09-13.33,5.55,0,0-8.64,7.86-2.31,2.07-.6.52a.94.94,0,0,1-.21.17,1.85,1.85,0,0,1,.18-.2l.58-.55,2.25-2.13c2-1.86,4.9-4.56,8.55-8l0,0h0L206,326.43l.17-.08.08.16a3.08,3.08,0,0,1,.22,2.07,3.87,3.87,0,0,1-1.06,1.81,24.33,24.33,0,0,1-3.28,2.67c-1.16.84-2.41,1.61-3.56,2.52a3.47,3.47,0,0,0-1.29,1.64,2.19,2.19,0,0,0,0,1,2,2,0,0,0,.38,1,3.88,3.88,0,0,0,1.89,1.07,13.16,13.16,0,0,0,2.28.46c1.57.18,3.2.18,4.85.27a21.85,21.85,0,0,1,5,.67,2.8,2.8,0,0,1,1.21.69,1.14,1.14,0,0,1,.31.7,1.93,1.93,0,0,1,0,.72,2,2,0,0,1-.78,1.22,3.31,3.31,0,0,1-1.28.58h0l-9.48.58h-.09a1.69,1.69,0,0,0-1.09,0c-.21.09-.13.5,0,.91a8,8,0,0,0,1.33,2.22l-.08-.06c2.25,1.1,4.52,2.26,6.77,3.51a40.42,40.42,0,0,1,5,3.15,5,5,0,0,1,1.09,1.07,2.8,2.8,0,0,1,.33.71c.07.23.15.47.2.71a3,3,0,0,1,.06,1.56.74.74,0,0,1-.3.43.58.58,0,0,1-.54,0l-.66-.26-10.35-4.05.22-.45c2.38,1.41,4.7,2.82,6.93,4.26,1.12.71,2.22,1.44,3.27,2.2.53.38,1.05.76,1.54,1.19a4.48,4.48,0,0,1,.71.73.79.79,0,0,1,.12.34,1,1,0,0,1,0,.3,4.42,4.42,0,0,1-.15.48,1.55,1.55,0,0,1-.72.82,2.14,2.14,0,0,1-1,.19,2.51,2.51,0,0,1-1-.18c-.31-.1-.59-.23-.87-.35-1.13-.51-2.19-1.07-3.24-1.62-2.1-1.11-4.1-2.23-6-3.32l.23-.35c2.23,1.7,4.35,3.34,6.26,5l.69.67a3.13,3.13,0,0,1,.31.39.82.82,0,0,1,.12.57,1.08,1.08,0,0,1-.69.81,1.8,1.8,0,0,1-1,.06,9.6,9.6,0,0,1-1.64-.79l-1.5-.84-5.45-3.16c-.84-.47-1.63-1-2.41-1.38l-2.26-1.15-6.59-3.37-1.73-.89Z" style="fill:#eb996e"></path><path d="M143.38,239.94l-.43-4.26,25.24-7c7.83-1.48,17,5.74,18.18,13.63,1.28,8.77,2.5,19.53,2,26.19-1,13.4-11,15.91-11,15.91l.79,8.48A13.87,13.87,0,0,1,165.64,308h0A13.87,13.87,0,0,1,150.56,296Z" style="fill:#ffbe9d"></path><path d="M183.74,253.09a1.69,1.69,0,0,1-1.49,1.84,1.62,1.62,0,0,1-1.87-1.38,1.7,1.7,0,0,1,1.49-1.85A1.62,1.62,0,0,1,183.74,253.09Z" style="fill:#263238"></path><path d="M184,248.17c-.19.24-1.56-.61-3.38-.45s-3.09,1.17-3.3,1,.07-.51.62-1a4.67,4.67,0,0,1,2.62-1.05,4.46,4.46,0,0,1,2.71.63C183.91,247.68,184.13,248.06,184,248.17Z" style="fill:#263238"></path><path d="M166.37,254.72a1.69,1.69,0,0,1-1.49,1.84,1.63,1.63,0,0,1-1.88-1.38,1.72,1.72,0,0,1,1.5-1.85A1.62,1.62,0,0,1,166.37,254.72Z" style="fill:#263238"></path><path d="M166.13,250c-.2.24-1.56-.6-3.38-.45s-3.09,1.18-3.31,1,.08-.51.63-1a4.67,4.67,0,0,1,2.62-1.05,4.39,4.39,0,0,1,2.71.64C166,249.49,166.22,249.88,166.13,250Z" style="fill:#263238"></path><path d="M173.86,263a12.14,12.14,0,0,1,2.92-.77c.46-.09.9-.22.95-.54a2.38,2.38,0,0,0-.42-1.36c-.54-1.09-1.09-2.24-1.67-3.43-2.33-4.9-4.06-8.94-3.86-9s2.24,3.8,4.57,8.69c.57,1.21,1.1,2.36,1.62,3.47a2.69,2.69,0,0,1,.39,1.8,1.2,1.2,0,0,1-.71.75,3.24,3.24,0,0,1-.78.17A11.62,11.62,0,0,1,173.86,263Z" style="fill:#263238"></path><path d="M177.35,284.46a35.18,35.18,0,0,1-18.55-3.26s5.22,8.89,18.81,6.56Z" style="fill:#eb996e"></path><path d="M165.71,243.16c-.14.51-2,.42-4.1.86s-3.8,1.16-4.13.74c-.14-.21.12-.7.78-1.24a7.05,7.05,0,0,1,3-1.33,7,7,0,0,1,3.28.12C165.34,242.56,165.77,242.92,165.71,243.16Z" style="fill:#263238"></path><path d="M183.47,241.92c-.29.44-1.58.11-3.09.21s-2.77.51-3.1.1c-.15-.2,0-.63.55-1.07a4.49,4.49,0,0,1,5-.25C183.38,241.29,183.59,241.7,183.47,241.92Z" style="fill:#263238"></path><path d="M189.72,229.77a3.26,3.26,0,0,1,.4-2.82,9.11,9.11,0,0,0,.94-7.34,9.6,9.6,0,0,0-6.93-6.4,10.17,10.17,0,0,0-6.49.74,3.39,3.39,0,0,1-3.69-.67,3.93,3.93,0,0,0-1.67-.89,6.18,6.18,0,0,0-4.28.81,11.4,11.4,0,0,0-3.39,2.84,3.36,3.36,0,0,1-4.22.88,6.78,6.78,0,0,0-4.17-.85,7.14,7.14,0,0,0-5.67,4.63,25.86,25.86,0,0,1-1,2.93,3.44,3.44,0,0,1-2.8,1.61h0a9,9,0,0,0-4.53,2.17,12.42,12.42,0,0,0-4.28,9.74c.56,9.34,3.6,14,4.31,23a3.31,3.31,0,0,0,.46,1.7c.89,1.23,2.79.5,3.86-.55,2.61-2.56,3.82-6.33,4.32-10s.39-7.48.85-11.19c0-.08,0-.17,0-.26v-.05a3.31,3.31,0,0,1,4.67-2.49l.23.1a10.23,10.23,0,0,0,10.46-1.82,3.34,3.34,0,0,1,3.72-.41,15.11,15.11,0,0,0,8,1.6c3.56-.29,7-1.28,9.56-3.89a5.21,5.21,0,0,0,1.36-2.45A1,1,0,0,0,189.72,229.77Z" style="fill:#263238"></path><path d="M146.93,256.91c-.18-.08-7.32-2.14-7.06,5.14s7.51,5.51,7.52,5.31S146.93,256.91,146.93,256.91Z" style="fill:#ffbe9d"></path><path d="M145.06,264.68s-.12.09-.33.2a1.29,1.29,0,0,1-.95.05,3.13,3.13,0,0,1-1.55-2.76,4.3,4.3,0,0,1,.29-1.83,1.47,1.47,0,0,1,.92-1,.65.65,0,0,1,.76.32c.11.2.06.35.1.36s.16-.13.09-.43a.82.82,0,0,0-.31-.44.92.92,0,0,0-.7-.16,1.79,1.79,0,0,0-1.29,1.17,4.39,4.39,0,0,0-.37,2.05c.1,1.46.9,2.81,2,3.08a1.38,1.38,0,0,0,1.15-.24C145.06,264.85,145.09,264.69,145.06,264.68Z" style="fill:#eb996e"></path><path d="M169.61,265.78a9.59,9.59,0,0,0-.67,2.51,2.89,2.89,0,0,0,.61,2.32A3.22,3.22,0,0,0,171.9,272h0a3.55,3.55,0,0,0,3.78-2.68l.48-1.85C174.46,266.79,169.73,265.91,169.61,265.78Z" style="fill:#eb996e"></path><path d="M173.76,271.61s-.2.12-.59.19a4.34,4.34,0,0,1-1.71,0,3.37,3.37,0,0,1-2.13-1.41,4.28,4.28,0,0,1-.63-3.07,4.37,4.37,0,0,1,.64-1.69l.1-.16.18,0a41.84,41.84,0,0,1,5.8,1.75,40.61,40.61,0,0,1-5.93-1.26l.28-.1a3.81,3.81,0,0,0-.55,1.49,3.92,3.92,0,0,0,.5,2.72,3.14,3.14,0,0,0,1.83,1.32A11.43,11.43,0,0,0,173.76,271.61Z" style="fill:#263238"></path><path d="M141.65,267.15s-.31.28-.77.86a5.71,5.71,0,0,0-1.15,2.84,4.93,4.93,0,0,0,1.38,4.15,5.12,5.12,0,0,0,8.72-2.38,5,5,0,0,0-.92-4.28,5.69,5.69,0,0,0-2.44-1.85c-.69-.27-1.11-.31-1.1-.36s.11,0,.31,0a3.34,3.34,0,0,1,.86.17,5.69,5.69,0,0,1,3.71,3.82,5.11,5.11,0,0,1,0,2.61,5.55,5.55,0,0,1-9.52,2.6,5.16,5.16,0,0,1-1.3-2.26,5.71,5.71,0,0,1-.11-2.27,5.6,5.6,0,0,1,1.37-2.92,3.7,3.7,0,0,1,.65-.58C141.55,267.19,141.64,267.13,141.65,267.15Z" style="fill:#263238"></path></g><g id="freepik--Device--inject-2"><path d="M328.42,464.31h0a1.7,1.7,0,0,0,.07,1.79c2.11,3.13,9.25,13.59,10.34,13.79,1.28.23,48.57-.37,48.57-.37s1.41-.79,1.52-1.5S379,464.46,378.45,464s-.82-.38-2.1-.5-39.76,0-46.46,0A1.7,1.7,0,0,0,328.42,464.31Z" style="fill:#455a64"></path><path d="M345.19,470.78a2.07,2.07,0,0,1-2.64,1.12c-1.23-.29-2.05-1.28-1.83-2.2a2.07,2.07,0,0,1,2.63-1.13C344.59,468.87,345.41,469.86,345.19,470.78Z" style="fill:#ebebeb"></path><path d="M328.72,463.92s.1.09.24.28l.64.85,2.33,3.25,3.54,5c.68,1,1.4,2,2.16,3.08l.57.83a2.15,2.15,0,0,0,.68.63,4.89,4.89,0,0,0,1.91.57h0l13.91-.13,23.64-.1,7.16,0,1.94,0a2.74,2.74,0,0,1,.68.05,5.09,5.09,0,0,1-.68.05l-1.94.07-7.16.13-23.64.26-13.91.08h0a5.11,5.11,0,0,1-2.11-.65,2.56,2.56,0,0,1-.81-.76l-.56-.82c-.75-1.09-1.46-2.13-2.12-3.11l-3.47-5.11-2.22-3.33-.57-.89A1.42,1.42,0,0,1,328.72,463.92Z" style="fill:#263238"></path></g><g id="freepik--musical-notes--inject-2"><path d="M348.49,441.25h0c-.1-.24-2.14.9-4.66,1.41a9.11,9.11,0,0,1-3.1.18,7.32,7.32,0,0,1-1-.22c-.07-.16-.13-.24-.18-.22-.25.1-.17,2.69.06,5.89a23.8,23.8,0,0,0,.55,3.63,2.3,2.3,0,0,0-.67-.23,3.67,3.67,0,0,0-3.67,2.18,2,2,0,0,0,1.41,3,3.67,3.67,0,0,0,3.67-2.17,2.35,2.35,0,0,0,.08-1.88c-.05-1-.25-2.79-.4-4.83-.08-1-.17-1.91-.28-2.71a7,7,0,0,0,4.08,0,10.07,10.07,0,0,0,4-1.93c0,1,.11,2.33.21,3.77a22.44,22.44,0,0,0,.55,3.63,2.4,2.4,0,0,0-.67-.22,3.67,3.67,0,0,0-3.68,2.17,2,2,0,0,0,1.41,3,3.68,3.68,0,0,0,3.68-2.18,2.43,2.43,0,0,0,.08-1.88c-.06-1-.26-2.79-.41-4.83C349.29,443.65,348.77,441.14,348.49,441.25Zm-4.12,3.16a26.72,26.72,0,0,1-4.12.55c-.11-.7-.22-1.29-.33-1.73a2.94,2.94,0,0,0,.47.23,6.27,6.27,0,0,0,3.4.09,10.41,10.41,0,0,0,4.63-2.16,7,7,0,0,0-.07,1.58A26.26,26.26,0,0,1,344.37,444.41Z" style="fill:#263238"></path><path d="M290.42,405.66h0c-.09-.23-2.14.9-4.66,1.42a9.11,9.11,0,0,1-3.1.18,7.7,7.7,0,0,1-1-.22c-.06-.16-.13-.24-.18-.22-.25.1-.16,2.69.06,5.88a23.6,23.6,0,0,0,.55,3.63,2.29,2.29,0,0,0-.67-.22,3.66,3.66,0,0,0-3.67,2.17,2,2,0,0,0,1.41,3,3.66,3.66,0,0,0,3.67-2.17,2.42,2.42,0,0,0,.09-1.89c-.06-1-.26-2.79-.41-4.83-.07-1-.17-1.9-.28-2.7a7.15,7.15,0,0,0,4.08,0,10.27,10.27,0,0,0,4-1.93c0,1,.1,2.33.2,3.77a23.8,23.8,0,0,0,.55,3.63,2.3,2.3,0,0,0-.67-.23,3.68,3.68,0,0,0-3.68,2.18,2,2,0,0,0,1.41,3,3.67,3.67,0,0,0,3.68-2.17,2.35,2.35,0,0,0,.08-1.88c-.05-1-.26-2.79-.41-4.83C291.22,408.07,290.7,405.56,290.42,405.66Zm-4.12,3.17a26.47,26.47,0,0,1-4.13.54,16.64,16.64,0,0,0-.33-1.72,2.7,2.7,0,0,0,.48.23,6.23,6.23,0,0,0,3.39.09,10.38,10.38,0,0,0,4.63-2.17,8.52,8.52,0,0,0-.07,1.59A26,26,0,0,1,286.3,408.83Z" style="fill:#263238"></path><path d="M356.07,391.69h0c-.05-.25-2.28.44-4.86.43a9,9,0,0,1-3.07-.46,8.57,8.57,0,0,1-.93-.42c0-.17-.08-.26-.14-.25-.26,0-.71,2.59-1.14,5.77a22.94,22.94,0,0,0-.21,3.67,1.93,1.93,0,0,0-.61-.36,3.68,3.68,0,0,0-4,1.37,2,2,0,0,0,.76,3.23,3.65,3.65,0,0,0,4-1.37,2.35,2.35,0,0,0,.47-1.82c.16-1,.32-2.79.59-4.81.14-1,.23-1.9.29-2.71a7.06,7.06,0,0,0,4,.85,10.23,10.23,0,0,0,4.29-1.08c-.19,1-.38,2.31-.58,3.74a24,24,0,0,0-.21,3.66,2.14,2.14,0,0,0-.61-.36,3.68,3.68,0,0,0-4,1.38,2,2,0,0,0,.77,3.23,3.68,3.68,0,0,0,4-1.37,2.41,2.41,0,0,0,.47-1.83c.15-1,.32-2.79.59-4.81C356.36,394.21,356.36,391.65,356.07,391.69ZM351.39,394a26.69,26.69,0,0,1-4.15-.32c0-.7.05-1.3,0-1.75a3.93,3.93,0,0,0,.41.32A6.27,6.27,0,0,0,351,393a10.39,10.39,0,0,0,5-1.16,8.48,8.48,0,0,0-.39,1.53A25.65,25.65,0,0,1,351.39,394Z" style="fill:#263238"></path><path d="M374.37,426.52a2.77,2.77,0,1,1-3.49-1.76A2.77,2.77,0,0,1,374.37,426.52Z" style="fill:#263238"></path><path d="M373.7,425.77c-.09.14-2.52-1.48-5.09-4a44.44,44.44,0,0,1-4.5-4.6c.12-.14,2.37,1.69,4.92,4.16S373.8,425.63,373.7,425.77Z" style="fill:#263238"></path><path d="M368,412.71c.16,0,.06,1.56-1.11,3a4,4,0,0,1-2.69,1.73c-.08-.17,1.17-.8,2.21-2.11S367.83,412.67,368,412.71Z" style="fill:#263238"></path><path d="M370,414.82c.17,0,.12,1.54-1.12,2.85s-2.77,1.49-2.77,1.32,1.26-.56,2.33-1.73A18.45,18.45,0,0,0,370,414.82Z" style="fill:#263238"></path><path d="M284.28,379.05a2.77,2.77,0,1,1-.1-3.92A2.77,2.77,0,0,1,284.28,379.05Z" style="fill:#263238"></path><path d="M284.63,378.1c-.17,0,.1-2.92,1.06-6.36a46.41,46.41,0,0,1,1.92-6.14c.19,0-.36,2.89-1.33,6.3S284.79,378.12,284.63,378.1Z" style="fill:#263238"></path><path d="M293.42,366.89c.08.14-1.35.79-3.16.44a4,4,0,0,1-2.79-1.55c.11-.15,1.26.66,2.9,1S293.37,366.72,293.42,366.89Z" style="fill:#263238"></path><path d="M292.5,369.62c.09.13-1.3.83-3.05.36s-2.62-1.73-2.47-1.81a16.57,16.57,0,0,0,2.63,1.22C291.14,369.81,292.45,369.44,292.5,369.62Z" style="fill:#263238"></path></g><g id="freepik--speech-bubbles--inject-2"><circle cx="535.42" cy="219.97" r="24.97" transform="translate(58.08 547.4) rotate(-56.78)" style="fill:#fff"></circle><path d="M560.9,239.4a5.64,5.64,0,0,0-.73.18,3.3,3.3,0,0,0-1.57,1.22,3,3,0,0,0-.53,1.27,2.69,2.69,0,0,0,.19,1.54,3,3,0,0,0,5.61-.05A2.68,2.68,0,0,0,564,242a3.08,3.08,0,0,0-.55-1.26,3.35,3.35,0,0,0-1.6-1.19c-.45-.15-.73-.15-.73-.18h.2a1.06,1.06,0,0,1,.24,0,2.71,2.71,0,0,1,.32.07,3.36,3.36,0,0,1,2.31,2.5,2.91,2.91,0,0,1-.16,1.66,3.47,3.47,0,0,1-1.12,1.47,3,3,0,0,1-3.74,0,3.41,3.41,0,0,1-1.15-1.45,2.93,2.93,0,0,1-.19-1.66,3.38,3.38,0,0,1,.59-1.33,3.25,3.25,0,0,1,1.68-1.2l.32-.08.24,0A.63.63,0,0,1,560.9,239.4Z" style="fill:#263238"></path><path d="M560.41,223.21s0-.13,0-.4.05-.68.08-1.2c0-.26,0-.55.06-.88s0-.67,0-1.06,0-.8,0-1.24a5.31,5.31,0,0,0,0-.68c0-.23-.06-.47-.1-.72a24,24,0,0,0-1.89-7,25,25,0,0,0-5.41-7.87l-1-.94c-.35-.3-.71-.58-1.08-.87l-.54-.44a4.75,4.75,0,0,0-.58-.42l-1.21-.79-.61-.4-.66-.34-1.33-.69c-.46-.22-.94-.38-1.41-.58l-.72-.29-.37-.14-.37-.11a23.8,23.8,0,0,0-3.1-.77c-.53-.09-1.06-.21-1.61-.27l-1.65-.13c-.28,0-.56-.05-.84-.05l-.85,0c-.56,0-1.13,0-1.7,0a27.3,27.3,0,0,0-3.44.54l-.87.2-.43.1-.42.14-1.71.56c-.56.22-1.1.49-1.66.73-.28.13-.57.23-.83.38l-.81.45a29.72,29.72,0,0,0-3.12,2l-1.45,1.23-.36.31L518,202l-.67.69-.67.69-.61.75-.6.76-.31.37-.27.41c-.35.55-.71,1.09-1.07,1.64l-.91,1.76a24.71,24.71,0,0,0-2,15.67c.14.64.29,1.28.43,1.92s.41,1.25.62,1.86l.15.47.2.44.39.89.4.88.47.84.47.83.24.42.27.39,1.08,1.55a27.62,27.62,0,0,0,2.51,2.76l.66.65c.22.21.47.39.7.58.48.38.94.77,1.43,1.13l1.5,1,.38.24.39.21.78.41a27.1,27.1,0,0,0,3.19,1.4c.54.19,1.1.33,1.64.49l.81.23c.27.08.55.11.82.17l1.64.29c.54.08,1.09.1,1.62.15a22.72,22.72,0,0,0,3.19,0h.4a2.58,2.58,0,0,0,.38,0l.77-.09c.51-.07,1-.11,1.52-.21l1.46-.32.72-.17.7-.22,1.37-.45a4.8,4.8,0,0,0,.66-.27l.64-.28,1.27-.56,1.17-.67a24.91,24.91,0,0,0,7.24-6.24l.65-.81.55-.84.53-.81c.09-.14.18-.26.26-.4l.21-.41.81-1.54c.24-.49.41-1,.61-1.45l.27-.68a5.47,5.47,0,0,0,.23-.64c.12-.43.24-.82.35-1.19s.21-.71.29-1,.11-.61.16-.87c.1-.51.17-.9.22-1.18l.09-.4-.06.41c-.05.27-.12.66-.2,1.18,0,.26-.1.55-.16.87s-.18.65-.28,1-.22.77-.34,1.19a4.15,4.15,0,0,1-.22.65l-.27.68c-.19.46-.36,1-.6,1.47s-.52,1-.8,1.55l-.22.41a4.37,4.37,0,0,1-.25.4l-.53.81-.55.85c-.2.28-.43.55-.65.83a25,25,0,0,1-7.25,6.3l-1.19.67c-.41.2-.84.38-1.27.57l-.64.29c-.22.09-.44.19-.67.26l-1.38.46-.7.23-.73.16-1.47.34c-.5.1-1,.13-1.53.21l-.77.09-.39,0h-.4a24.65,24.65,0,0,1-3.21,0c-.54,0-1.09-.07-1.64-.15l-1.65-.29c-.27-.06-.55-.09-.83-.17l-.82-.23c-.54-.16-1.1-.3-1.65-.49a25.23,25.23,0,0,1-3.21-1.41l-.8-.41-.39-.21-.38-.25-1.52-1c-.49-.35-1-.75-1.44-1.13-.23-.2-.49-.37-.71-.59l-.67-.64a28,28,0,0,1-2.53-2.79c-.36-.52-.73-1-1.09-1.57l-.28-.39-.24-.42-.47-.84-.48-.85-.4-.89-.39-.89-.2-.45-.16-.47c-.21-.62-.41-1.25-.62-1.87l-.44-1.95A25,25,0,0,1,512.72,209l.92-1.76c.37-.56.73-1.11,1.08-1.66.1-.14.18-.28.28-.41l.3-.38.62-.77.61-.76.67-.69.68-.7.34-.34.36-.31L520,200a28.79,28.79,0,0,1,3.16-2l.81-.46c.26-.15.56-.25.83-.38.57-.25,1.12-.51,1.69-.73l1.72-.57.42-.14.44-.1.87-.2a26.29,26.29,0,0,1,3.47-.54c.58,0,1.15,0,1.72-.05l.85,0c.29,0,.57,0,.85.05l1.66.14c.55.06,1.09.19,1.63.28a24.53,24.53,0,0,1,3.12.78l.37.11.37.14.73.29c.47.2,1,.37,1.42.59l1.34.7.66.35.62.4,1.22.79a6.07,6.07,0,0,1,.57.43l.55.44c.37.3.74.58,1.08.88l1,1A25.12,25.12,0,0,1,558.6,210a23.77,23.77,0,0,1,1.86,7l.09.72a4.08,4.08,0,0,1,.05.69c0,.44,0,.85,0,1.24s0,.74,0,1.07,0,.61-.07.88c0,.52-.08.91-.11,1.19S560.41,223.21,560.41,223.21Z" style="fill:#263238"></path><path d="M542.49,214.68h0c0-.26-2.27.48-4.84.53a9,9,0,0,1-3.08-.41,6.49,6.49,0,0,1-.94-.4c0-.16-.08-.25-.14-.24-.26.05-.66,2.61-1,5.79a24.22,24.22,0,0,0-.13,3.67,2,2,0,0,0-.62-.34,3.66,3.66,0,0,0-4,1.45,2,2,0,0,0,.83,3.22,3.66,3.66,0,0,0,4-1.46,2.34,2.34,0,0,0,.43-1.83c.14-1,.27-2.79.5-4.82.11-1,.18-1.91.22-2.71a7.12,7.12,0,0,0,4,.76,10.34,10.34,0,0,0,4.27-1.16c-.17,1-.34,2.31-.5,3.74a23,23,0,0,0-.13,3.67,2.06,2.06,0,0,0-.62-.34,3.65,3.65,0,0,0-4,1.45,2,2,0,0,0,.83,3.22,3.68,3.68,0,0,0,4-1.46,2.39,2.39,0,0,0,.43-1.83c.13-1,.26-2.8.49-4.83C542.84,217.18,542.79,214.62,542.49,214.68ZM537.86,217a26.88,26.88,0,0,1-4.15-.23c0-.71,0-1.31,0-1.76a2.55,2.55,0,0,0,.42.32,6.34,6.34,0,0,0,3.33.71,10.3,10.3,0,0,0,4.94-1.27,8.58,8.58,0,0,0-.36,1.54A26.13,26.13,0,0,1,537.86,217Z" style="fill:#263238"></path><path d="M194.3,264l5.35-9.42a25.21,25.21,0,1,1,6,6.72h0Z" style="fill:#fafafa"></path><path d="M194.3,264l11.41-2.61.12,0-.07-.09v0l-.11.11a25.94,25.94,0,0,0,5.18,3.13,25.62,25.62,0,0,0,6.91,2,22.7,22.7,0,0,0,4,.2c.68,0,1.38-.06,2.08-.11l2.13-.33a25.38,25.38,0,0,0,15.74-10.1,24.94,24.94,0,0,0,4.26-9.73,25.62,25.62,0,0,0-.3-11.21,24.93,24.93,0,0,0-5.39-10.36l-1-1.13c-.34-.38-.74-.7-1.11-1a13.37,13.37,0,0,0-1.14-1l-1.21-.9a10,10,0,0,0-1.25-.83l-1.28-.78-1.34-.65a11.57,11.57,0,0,0-1.35-.6,25.74,25.74,0,0,0-11.29-1.73,24.84,24.84,0,0,0-10.37,3.06,25.51,25.51,0,0,0-12,14.71,27.24,27.24,0,0,0-1.1,8.2,25.22,25.22,0,0,0,3.76,12.49v-.08L194.3,264l5.41-9.38,0,0,0,0a25.1,25.1,0,0,1-2.48-5.4,24.82,24.82,0,0,1-1.19-7,27.08,27.08,0,0,1,1.11-8.12A25.35,25.35,0,0,1,209,219.42a24.71,24.71,0,0,1,10.25-3,25.39,25.39,0,0,1,11.15,1.73,10.68,10.68,0,0,1,1.34.59l1.32.64,1.26.77a10.23,10.23,0,0,1,1.24.82l1.19.89c.41.29.75.66,1.13,1s.76.65,1.09,1l1,1.11a24.73,24.73,0,0,1,5.34,10.24,25.6,25.6,0,0,1,.3,11.07,24.79,24.79,0,0,1-4.2,9.62,25.19,25.19,0,0,1-15.55,10l-2.11.33c-.7.06-1.39.08-2.07.12a22.26,22.26,0,0,1-4-.19,24.89,24.89,0,0,1-6.86-1.93,25.22,25.22,0,0,1-5.16-3.07l-.47-.36.36.47h0l.05-.12Z" style="fill:#263238"></path><path d="M227.9,240.29a2.46,2.46,0,1,0,2.46-2.46A2.46,2.46,0,0,0,227.9,240.29Z" style="fill:#263238"></path><path d="M218.05,240.29a2.46,2.46,0,1,0,2.46-2.46A2.46,2.46,0,0,0,218.05,240.29Z" style="fill:#263238"></path><path d="M208.23,239.06a2.46,2.46,0,1,0,3.36-.9A2.46,2.46,0,0,0,208.23,239.06Z" style="fill:#263238"></path><path d="M352.05,190.68l-7.31-10.52a29.81,29.81,0,1,0-6.39,8.57h0Z" style="fill:#fafafa"></path><path d="M352.05,190.68l-13.72-1.85-.15,0,.08-.12h0l.14.12a30.35,30.35,0,0,1-5.77,4.23,29.78,29.78,0,0,1-7.93,3.07,26.94,26.94,0,0,1-4.67.67c-.82,0-1.64.08-2.48.09l-2.54-.15a30.06,30.06,0,0,1-19.64-10.21,29.74,29.74,0,0,1-6.07-11,30.34,30.34,0,0,1-.85-13.24,29.41,29.41,0,0,1,5.24-12.79l1.09-1.45c.36-.48.8-.9,1.2-1.35a15.11,15.11,0,0,1,1.24-1.29l1.32-1.2a13.52,13.52,0,0,1,1.39-1.11l1.42-1.05,1.51-.91a15.34,15.34,0,0,1,1.53-.86A30.56,30.56,0,0,1,317.52,137a29.51,29.51,0,0,1,12.54,2.5,30,30,0,0,1,9.74,6.89,30.54,30.54,0,0,1,5.94,9.16,32.51,32.51,0,0,1,2.17,9.54,29.87,29.87,0,0,1-.69,8.47,30.41,30.41,0,0,1-2.4,6.66v-.09l7.23,10.57-7.38-10.47,0,0,0,0a29.85,29.85,0,0,0,2.34-6.63,29.14,29.14,0,0,0,.65-8.41,31.93,31.93,0,0,0-2.18-9.44,29.93,29.93,0,0,0-15.54-15.85,29.07,29.07,0,0,0-12.41-2.45,30.05,30.05,0,0,0-13,3.23,13.15,13.15,0,0,0-1.51.84l-1.48.9-1.41,1a13.19,13.19,0,0,0-1.37,1.1l-1.31,1.18c-.45.38-.81.86-1.22,1.28s-.83.85-1.18,1.33L294,149.67a29.09,29.09,0,0,0-5.18,12.63,30.06,30.06,0,0,0,.83,13.08,29.48,29.48,0,0,0,6,10.89,29.84,29.84,0,0,0,19.42,10.15l2.51.16c.83,0,1.65-.06,2.46-.09a26.61,26.61,0,0,0,4.64-.64,29.59,29.59,0,0,0,13.62-7.19l.52-.47-.38.59h0l-.07-.14Z" style="fill:#263238"></path><path d="M308.15,167.83a2.91,2.91,0,1,1-5.8.53,2.91,2.91,0,0,1,5.8-.53Z" style="fill:#263238"></path><path d="M319.75,166.77a2.91,2.91,0,1,1-3.16-2.64A2.91,2.91,0,0,1,319.75,166.77Z" style="fill:#263238"></path><path d="M331.2,164.26a2.91,2.91,0,1,1-4.06-.7A2.92,2.92,0,0,1,331.2,164.26Z" style="fill:#263238"></path></g></svg>